<?xml version="1.0" encoding="utf-8"?>
<!-- Generator: Adobe Illustrator 24.0.2, SVG Export Plug-In . SVG Version: 6.00 Build 0)  -->
<svg version="1.1" id="car" xmlns="http://www.w3.org/2000/svg" xmlns:xlink="http://www.w3.org/1999/xlink" x="0px" y="0px"
	 viewBox="0 0 65 57.5" style="enable-background:new 0 0 65 57.5;" xml:space="preserve">
<title>iconos principales</title>
<path d="M18.6,39.7L12,32.4c-1.2-1.4-2.9-2.2-4.8-2.2H2.7c-0.8,0.1-1.4,0.8-1.4,1.7c0.1,0.7,0.6,1.3,1.4,1.4h4.5
	c1.1,0,2.1,0.5,2.9,1.3l4.2,4.7H2.7c-0.8,0.1-1.4,0.8-1.4,1.7c0.1,0.7,0.6,1.3,1.4,1.4h14.9c0.6,0,1.1-0.4,1.2-0.9
	C19.1,40.8,18.9,40.2,18.6,39.7z"/>
<path d="M17.6,46.9c-0.8,0-1.4,0.7-1.4,1.5v4.6c0,0.8-0.6,1.5-1.4,1.5H6.8c-0.8,0-1.4-0.7-1.4-1.5v-6.1c0-0.8-0.6-1.5-1.3-1.5
	c0,0,0,0,0,0c-0.8,0-1.4,0.7-1.4,1.5c0,0,0,0,0,0v6.1c-0.1,2.4,1.7,4.4,4.1,4.5h8.1c2.4-0.1,4.2-2.2,4.1-4.5v-4.6
	C19,47.6,18.4,46.9,17.6,46.9z"/>
<path d="M58.9,21.3c-3.7-2.2-12.1-3.2-26.4-3.2s-22.6,1-26.4,3.2C1.9,23.8,0,27.9,0,34.7c0,4.2,0.5,8.4,1.4,12.5
	c0.1,0.6,0.7,1.1,1.3,1.1h11.9l5.1,2.9c0.2,0.1,0.4,0.2,0.6,0.2h24.4c0.2,0,0.4-0.1,0.6-0.2l5.1-2.9h11.9c0.6,0,1.2-0.5,1.3-1.1
	c0.9-4.1,1.4-8.3,1.4-12.5C65,27.9,63.1,23.8,58.9,21.3z M61.2,45.3H50.1c-0.2,0-0.4,0.1-0.6,0.2l-5.1,2.9H20.6l-5.1-2.9
	c-0.2-0.1-0.4-0.2-0.6-0.2H3.8c-0.7-3.5-1-7-1.1-10.6c0-5.7,1.4-8.8,4.7-10.8s11.7-2.9,25.1-2.9s21.9,1,25.1,2.9
	c3.2,1.9,4.7,5.1,4.7,10.8C62.2,38.3,61.9,41.8,61.2,45.3z"/>
<path d="M62.3,39.3H50.7l4.2-4.7c0.7-0.8,1.8-1.3,2.9-1.3h4.5c0.8-0.1,1.4-0.8,1.4-1.7c-0.1-0.7-0.6-1.3-1.4-1.4h-4.5
	c-1.8,0-3.6,0.8-4.8,2.2l-6.5,7.3c-0.4,0.5-0.5,1.1-0.3,1.6c0.2,0.5,0.7,0.9,1.3,0.9h14.9c0.8-0.1,1.4-0.8,1.4-1.7
	C63.6,39.9,63,39.4,62.3,39.3z"/>
<path d="M48.6,31.1c-0.2-0.5-0.7-0.9-1.2-0.9H17.6c-0.6,0-1,0.4-1.2,0.9c-0.2,0.5-0.2,1.2,0.2,1.6l6.8,9.1c0.2,0.3,0.6,0.5,1,0.5
	h16.3c0.4,0,0.8-0.2,1-0.5l6.8-9.1C48.8,32.2,48.9,31.6,48.6,31.1z M40,39.3H25l-4.5-6.1h24L40,39.3z"/>
<path d="M59.5,22C57.9,18,52.8,5,51,3.3c-2.2-2.1-8.6-3.4-17.1-3.4h-2.7c-8.5,0-14.9,1.3-17.1,3.4C12.2,5,7.1,18,5.5,22
	c-0.3,0.7,0,1.6,0.7,2c0.7,0.3,1.4,0,1.7-0.7c0-0.1,0-0.1,0.1-0.2c3.1-7.9,6.8-16.6,7.8-17.6s5.4-2.6,15.4-2.6h2.7
	c9.9,0,14.3,1.6,15.4,2.7c1,1,4.7,9.8,7.8,17.6c0.2,0.5,0.7,0.9,1.2,0.9c0.2,0,0.4,0,0.5-0.1C59.5,23.6,59.8,22.8,59.5,22z"/>
<path d="M60.9,45.3c-0.8,0-1.4,0.7-1.4,1.5v6.1c0,0.8-0.6,1.5-1.4,1.5h-8.1c-0.8-0.1-1.4-0.7-1.4-1.5v-4.6c0.1-0.7-0.5-1.4-1.3-1.5
	c-0.7-0.1-1.4,0.5-1.5,1.3c0,0.1,0,0.1,0,0.2v4.6c-0.1,2.4,1.7,4.4,4.1,4.5h8.1c2.2,0,4.1-2,4.1-4.5v-6.1
	C62.3,46.1,61.7,45.4,60.9,45.3C60.9,45.3,60.9,45.3,60.9,45.3z"/>
</svg>
