<svg xmlns="http://www.w3.org/2000/svg" viewBox="0 0 57.95 71"><title>iconos principales</title><g id="fam"><path d="M29.1,48.5a4.32,4.32,0,0,0,4-4.54,4.31,4.31,0,0,0-4-4.53A4.32,4.32,0,0,0,25.05,44,4.33,4.33,0,0,0,29.1,48.5Zm0-7A2.47,2.47,0,1,1,26.91,44,2.34,2.34,0,0,1,29.1,41.51Z"/><path d="M47.07,15c3.7,0,6.72-3.37,6.72-7.51S50.77,0,47.07,0s-6.71,3.37-6.71,7.52S43.37,15,47.07,15Zm0-12.95c2.68,0,4.86,2.44,4.86,5.44A5.18,5.18,0,0,1,47.07,13c-2.67,0-4.85-2.44-4.85-5.43S44.4,2.08,47.07,2.08Z"/><path d="M57,26.59a1,1,0,0,0-.93,1V41.86a.64.64,0,0,1-.6.67H53.22V24.17a.94.94,0,1,0-1.86,0V68.25a.64.64,0,0,1-.6.67H48.6a.64.64,0,0,1-.6-.67V51.7a.94.94,0,1,0-1.86,0V68.25a.64.64,0,0,1-.6.67H43.38a.64.64,0,0,1-.6-.67V24.17a.94.94,0,1,0-1.86,0V42.53H38.66a.64.64,0,0,1-.6-.67V24.17c0-3.41,2.48-6.19,5.53-6.19h7c3.06,0,5.54,2.78,5.54,6.19a.94.94,0,1,0,1.86,0c0-4.56-3.32-8.27-7.4-8.27h-7c-4.08,0-7.39,3.71-7.39,8.27V41.86a2.62,2.62,0,0,0,2.46,2.75h2.26V68.25A2.62,2.62,0,0,0,43.38,71h2.16a2.31,2.31,0,0,0,1.53-.6,2.31,2.31,0,0,0,1.53.6h2.16a2.62,2.62,0,0,0,2.46-2.75V44.61h2.27A2.62,2.62,0,0,0,58,41.86V27.63A1,1,0,0,0,57,26.59Z"/><path d="M9.66,21.39c3.7,0,6.71-3.37,6.71-7.52s-3-7.51-6.71-7.51S3,9.73,3,13.87,6,21.39,9.66,21.39Zm0-12.95a5.18,5.18,0,0,1,4.86,5.43c0,3-2.18,5.44-4.86,5.44s-4.85-2.44-4.85-5.44S7,8.44,9.66,8.44Z"/><path d="M12.72,22.36H6.61C3,22.36,0,25.68,0,29.75V45.29a2.42,2.42,0,0,0,2.27,2.54h0l-.64,6.55a1.1,1.1,0,0,0,.23.81.9.9,0,0,0,.69.35H4.15V68.46A2.42,2.42,0,0,0,6.42,71h1.9a2.09,2.09,0,0,0,1.34-.5A2.12,2.12,0,0,0,11,71H12.9a2.41,2.41,0,0,0,2.27-2.54V62.71a.93.93,0,1,0-1.85,0v5.75a.45.45,0,0,1-.42.46H11a.45.45,0,0,1-.42-.46V57.35a1,1,0,0,0-.93-1,1,1,0,0,0-.93,1V68.46a.44.44,0,0,1-.41.46H6.42A.44.44,0,0,1,6,68.46V55.54h7.31v3.85a.93.93,0,1,0,1.85,0V55.54h1.57a.91.91,0,0,0,.7-.35,1.14,1.14,0,0,0,.23-.81L17,47.83h0a2.42,2.42,0,0,0,2.27-2.54V29.75C19.32,25.68,16.36,22.36,12.72,22.36Zm4.75,22.93a.45.45,0,0,1-.42.46h-.23l-1.7-17.33a1,1,0,0,0-1-.92,1,1,0,0,0-.82,1.15l2.44,24.81H3.62L6.05,28.65a1,1,0,0,0-.82-1.15,1,1,0,0,0-1,.92L2.5,45.75H2.27a.44.44,0,0,1-.41-.46V29.75a5.06,5.06,0,0,1,4.75-5.31h6.11a5.06,5.06,0,0,1,4.75,5.31Z"/><path d="M36.15,45a2.34,2.34,0,0,0-1.74.87L30.94,50H27.35l-3.46-4.13a2.31,2.31,0,0,0-3.52-.12,3,3,0,0,0-.11,3.94l4,4.79V68.28A2.58,2.58,0,0,0,26.7,71h4.89A2.59,2.59,0,0,0,34,68.28V62.57a.94.94,0,1,0-1.86,0v5.71a.61.61,0,0,1-.57.64H30V60.25a.93.93,0,1,0-1.85,0v8.67H26.7a.61.61,0,0,1-.57-.64V54.11a1.1,1.1,0,0,0-.25-.71l-4.27-5.09a.77.77,0,0,1,0-1,.58.58,0,0,1,.89,0l3.75,4.46a.87.87,0,0,0,.67.33h4.4A.87.87,0,0,0,32,51.8l3.74-4.46a.59.59,0,0,1,.9,0,.78.78,0,0,1,0,1L32.42,53.4a1.05,1.05,0,0,0-.26.71v5a.94.94,0,1,0,1.86,0V54.52l4-4.79a3,3,0,0,0-.11-3.94A2.3,2.3,0,0,0,36.15,45Z"/></g></svg>