<?xml version="1.0" encoding="utf-8"?>
<!-- Generator: Adobe Illustrator 24.0.2, SVG Export Plug-In . SVG Version: 6.00 Build 0)  -->
<svg version="1.1" xmlns="http://www.w3.org/2000/svg" xmlns:xlink="http://www.w3.org/1999/xlink" x="0px" y="0px"
	 viewBox="0 0 30 30" style="enable-background:new 0 0 30 30;" xml:space="preserve">
<style type="text/css">
	.st0{fill:#010202;}
	.st1{clip-path:url(#SVGID_2_);}
	.st2{fill:#88898C;}
	.st3{fill:#EB5F27;}
	.st4{clip-path:url(#SVGID_4_);}
	.st5{clip-path:url(#SVGID_6_);}
	.st6{clip-path:url(#SVGID_8_);}
	.st7{clip-path:url(#SVGID_10_);}
	.st8{fill:#EC672D;}
	.st9{fill:#F1F1F1;}
	.st10{clip-path:url(#SVGID_12_);}
	.st11{clip-path:url(#SVGID_14_);}
	.st12{fill:none;stroke:#6E6F72;stroke-width:0.8;stroke-miterlimit:10;}
	.st13{fill:none;stroke:#88898C;stroke-width:0.8;stroke-miterlimit:10;}
	.st14{fill:none;stroke:#494949;stroke-width:0.8;stroke-miterlimit:10;}
	.st15{fill:#6E6F72;}
	.st16{fill:none;stroke:#6E6F72;stroke-miterlimit:10;}
	.st17{fill:#717171;}
	.st18{fill:none;stroke:#717171;stroke-width:0.5706;stroke-miterlimit:3.8636;}
	.st19{fill-rule:evenodd;clip-rule:evenodd;fill:#E85410;}
	.st20{fill-rule:evenodd;clip-rule:evenodd;fill:#717171;}
	.st21{fill:#E85410;}
	.st22{fill:#FFFFFF;}
	.st23{clip-path:url(#SVGID_16_);}
	.st24{clip-path:url(#SVGID_18_);}
	.st25{clip-path:url(#SVGID_20_);}
	.st26{clip-path:url(#SVGID_22_);}
	.st27{clip-path:url(#SVGID_24_);}
	.st28{fill:#B5B5B7;}
	.st29{fill:#EBEBEB;}
	.st30{fill:#5B5B5B;}
	.st31{fill:#E15217;}
	.st32{fill:#0856A3;}
	.st33{fill:#BFBEBF;}
	.st34{fill:#485055;}
	.st35{fill:#32393F;}
	.st36{fill:#586065;}
	.st37{fill:#F29068;}
	.st38{fill:#F18A5F;}
	.st39{fill:#AA7A64;}
	.st40{fill:#B88C7B;}
	.st41{fill:#DA6837;}
	.st42{fill:#E46531;}
	.st43{fill:#F1BA87;}
	.st44{fill:#F1D0A5;}
	.st45{fill:#D37C56;}
	.st46{fill:#CE6B3F;}
	.st47{fill:#ED6A36;}
	.st48{fill:#B74B25;}
	.st49{fill:#E9511E;}
</style>
<g id="car">
</g>
<g id="fam">
</g>
<g id="home">
</g>
<g id="masivo">
</g>
<g id="salud">
</g>
<g id="viajes">
</g>
<g id="coporativos">
</g>
<g id="headphone">
</g>
<g id="web">
</g>
<g id="llamanos">
</g>
<g id="segurnet">
</g>
<g id="estrellas">
</g>
<g id="fb">
	<g>
		<path class="st28" d="M26.5,0h-23C1.6,0,0,1.6,0,3.5v23C0,28.4,1.6,30,3.5,30h23c1.9,0,3.5-1.6,3.5-3.5v-23C30,1.6,28.4,0,26.5,0z
			 M27.7,26.5c0,0.6-0.5,1.2-1.2,1.2h-6.7v-9.6h3.6l0.6-3.6h-4.2V12c0-1,0.8-1.8,1.8-1.8H24V6.6h-2.4c-3,0-5.4,2.4-5.4,5.4v2.5h-3.5
			v3.6h3.5v9.6H3.5c-0.6,0-1.2-0.5-1.2-1.2v-23c0-0.6,0.5-1.2,1.2-1.2h23c0.6,0,1.2,0.5,1.2,1.2V26.5z"/>
	</g>
</g>
<g id="ig">
</g>
<g id="valores">
</g>
<g id="vision">
</g>
<g id="personas">
</g>
<g id="direccion">
</g>
<g id="tele">
</g>
<g id="correo">
</g>
<g id="horario">
</g>
<g id="wassap">
</g>
<g id="seguro">
</g>
</svg>
