<svg xmlns="http://www.w3.org/2000/svg" viewBox="0 0 77 72.19"><title>iconos principales</title><g id="salud"><path d="M59.55,33.09a1.5,1.5,0,1,0,1.51,1.5A1.5,1.5,0,0,0,59.55,33.09Z"/><path d="M17.45,33.09a1.5,1.5,0,1,0,1.5,1.5A1.51,1.51,0,0,0,17.45,33.09Z"/><path d="M52,39.1H44.52V31.58A1.51,1.51,0,0,0,43,30.08H34a1.51,1.51,0,0,0-1.51,1.5V39.1H25a1.51,1.51,0,0,0-1.5,1.51v9a1.5,1.5,0,0,0,1.5,1.5h7.52v7.52A1.52,1.52,0,0,0,34,60.16h9a1.52,1.52,0,0,0,1.51-1.51V51.13H52a1.5,1.5,0,0,0,1.5-1.5v-9A1.51,1.51,0,0,0,52,39.1Zm-1.51,9H43a1.5,1.5,0,0,0-1.5,1.5v7.52h-6V49.63a1.5,1.5,0,0,0-1.5-1.5H26.47v-6H34a1.5,1.5,0,0,0,1.5-1.5V33.09h6v7.52a1.5,1.5,0,0,0,1.5,1.5h7.52Z"/><path d="M69.48,18.05H58.05V9a9,9,0,0,0-9-9H28a9,9,0,0,0-9,9v9H7.52A7.52,7.52,0,0,0,0,25.57v39.1a7.52,7.52,0,0,0,7.52,7.52h62A7.52,7.52,0,0,0,77,64.67V25.57A7.52,7.52,0,0,0,69.48,18.05ZM22,9a6,6,0,0,1,6-6H49a6,6,0,0,1,6,6v9H52V10.53A4.52,4.52,0,0,0,47.52,6h-18A4.52,4.52,0,0,0,25,10.53v7.52H22ZM49,10.53v7.52H28V10.53A1.52,1.52,0,0,1,29.48,9h18A1.52,1.52,0,0,1,49,10.53ZM9.93,69.18H7.52A4.51,4.51,0,0,1,3,64.67V25.57a4.51,4.51,0,0,1,4.51-4.51H9.93Zm54.14,0h-3V40.61a1.51,1.51,0,1,0-3,0V69.18H19V40.61a1.51,1.51,0,1,0-3,0V69.18h-3V21.06h3v7.52a1.51,1.51,0,0,0,3,0V21.06h39.1v7.52a1.51,1.51,0,0,0,3,0V21.06h3ZM74,64.67a4.51,4.51,0,0,1-4.51,4.51H67.07V21.06h2.41A4.51,4.51,0,0,1,74,25.57Z"/></g></svg>