<svg xmlns="http://www.w3.org/2000/svg" viewBox="0 0 68 76.19"><title>iconos principales</title><g id="home"><path d="M57.09,44V26.12a3.55,3.55,0,0,0,1-.15,4,4,0,0,0,2.42-2.07,4.76,4.76,0,0,0-1.45-6.09L32.56.65a3.61,3.61,0,0,0-4,0L2,17.81A4.77,4.77,0,0,0,.54,23.9,4,4,0,0,0,3,26a3.67,3.67,0,0,0,1,.15V55.54a4.55,4.55,0,0,0-2.72,4.29,4.31,4.31,0,0,0,4.05,4.53h34c1.76,6.83,7.38,11.83,14,11.83,8.05,0,14.6-7.34,14.6-16.36C68,52.25,63.35,45.85,57.09,44ZM2.83,22.41a1.58,1.58,0,0,1,.48-2L29.87,3.21a1.19,1.19,0,0,1,1.34,0h0L57.75,20.39a1.57,1.57,0,0,1,.48,2,1.33,1.33,0,0,1-.8.69,1.18,1.18,0,0,1-1-.15L31.2,6.63a1.19,1.19,0,0,0-1.33,0l-7.44,4.81a1.6,1.6,0,0,0-.49,2,1.26,1.26,0,0,0,1.82.55l6.77-4.39L54.44,25.09V43.51c-.36,0-.71,0-1.07,0-6.65,0-12.27,5-14,11.82H38.5V36a1.41,1.41,0,0,0-1.33-1.48H23.9A1.41,1.41,0,0,0,22.57,36V55.29H6.63V25.09l6.78-4.38a1.6,1.6,0,0,0,.49-2,1.26,1.26,0,0,0-1.82-.55L4.64,23a1.18,1.18,0,0,1-1,.15A1.37,1.37,0,0,1,2.83,22.41Zm33,32.88H25.22V37.44H35.84ZM5.31,61.39a1.57,1.57,0,0,1,0-3.12H38.83q-.06.76-.06,1.56c0,.52,0,1.05.06,1.56ZM53.37,73.22c-6.59,0-11.95-6-11.95-13.39s5.36-13.39,11.95-13.39,11.95,6,11.95,13.39S60,73.22,53.37,73.22Z"/><path d="M30.53,30c2.93,0,5.31-2.67,5.31-5.95s-2.38-5.95-5.31-5.95-5.31,2.67-5.31,5.95S27.6,30,30.53,30Zm0-8.92a2.83,2.83,0,0,1,2.66,3,2.84,2.84,0,0,1-2.66,3,2.84,2.84,0,0,1-2.65-3A2.83,2.83,0,0,1,30.53,21.08Z"/><path d="M17.92,17.56a1.49,1.49,0,0,0,0-3h0a1.49,1.49,0,0,0,0,3Z"/><path d="M61.14,53a3.7,3.7,0,0,0-5.63,0l-3.66,4.11-.63-.7a3.68,3.68,0,0,0-5.63,0,4.86,4.86,0,0,0,0,6.31L49,66.61a3.68,3.68,0,0,0,5.63,0l6.48-7.26a4.84,4.84,0,0,0,0-6.31Zm-1.88,4.21-6.48,7.26a1.21,1.21,0,0,1-1.87,0l-3.44-3.85a1.62,1.62,0,0,1,0-2.11,1.24,1.24,0,0,1,.94-.43,1.27,1.27,0,0,1,.94.43l1.56,1.75a1.22,1.22,0,0,0,1.87,0l4.61-5.15a1.22,1.22,0,0,1,1.87,0,1.57,1.57,0,0,1,.39,1.05A1.58,1.58,0,0,1,59.26,57.25Z"/></g></svg>