<?xml version="1.0" encoding="utf-8"?>
<!-- Generator: Adobe Illustrator 24.0.2, SVG Export Plug-In . SVG Version: 6.00 Build 0)  -->
<svg version="1.1" xmlns="http://www.w3.org/2000/svg" xmlns:xlink="http://www.w3.org/1999/xlink" x="0px" y="0px"
	 viewBox="0 0 30 30" style="enable-background:new 0 0 30 30;" xml:space="preserve">
<style type="text/css">
	.st0{fill:#010202;}
	.st1{clip-path:url(#SVGID_2_);}
	.st2{fill:#88898C;}
	.st3{fill:#EB5F27;}
	.st4{clip-path:url(#SVGID_4_);}
	.st5{clip-path:url(#SVGID_6_);}
	.st6{clip-path:url(#SVGID_8_);}
	.st7{clip-path:url(#SVGID_10_);}
	.st8{fill:#EC672D;}
	.st9{fill:#F1F1F1;}
	.st10{clip-path:url(#SVGID_12_);}
	.st11{clip-path:url(#SVGID_14_);}
	.st12{fill:none;stroke:#6E6F72;stroke-width:0.8;stroke-miterlimit:10;}
	.st13{fill:none;stroke:#88898C;stroke-width:0.8;stroke-miterlimit:10;}
	.st14{fill:none;stroke:#494949;stroke-width:0.8;stroke-miterlimit:10;}
	.st15{fill:#6E6F72;}
	.st16{fill:none;stroke:#6E6F72;stroke-miterlimit:10;}
	.st17{fill:#717171;}
	.st18{fill:none;stroke:#717171;stroke-width:0.5706;stroke-miterlimit:3.8636;}
	.st19{fill-rule:evenodd;clip-rule:evenodd;fill:#E85410;}
	.st20{fill-rule:evenodd;clip-rule:evenodd;fill:#717171;}
	.st21{fill:#E85410;}
	.st22{fill:#FFFFFF;}
	.st23{clip-path:url(#SVGID_16_);}
	.st24{clip-path:url(#SVGID_18_);}
	.st25{clip-path:url(#SVGID_20_);}
	.st26{clip-path:url(#SVGID_22_);}
	.st27{clip-path:url(#SVGID_24_);}
	.st28{fill:#B5B5B7;}
	.st29{fill:#EBEBEB;}
	.st30{fill:#5B5B5B;}
	.st31{fill:#E15217;}
	.st32{fill:#0856A3;}
	.st33{fill:#BFBEBF;}
	.st34{fill:#485055;}
	.st35{fill:#32393F;}
	.st36{fill:#586065;}
	.st37{fill:#F29068;}
	.st38{fill:#F18A5F;}
	.st39{fill:#AA7A64;}
	.st40{fill:#B88C7B;}
	.st41{fill:#DA6837;}
	.st42{fill:#E46531;}
	.st43{fill:#F1BA87;}
	.st44{fill:#F1D0A5;}
	.st45{fill:#D37C56;}
	.st46{fill:#CE6B3F;}
	.st47{fill:#ED6A36;}
	.st48{fill:#B74B25;}
	.st49{fill:#E9511E;}
</style>
<g id="car">
</g>
<g id="fam">
</g>
<g id="home">
	<g>
	</g>
</g>
<g id="masivo">
</g>
<g id="salud">
</g>
<g id="viajes">
</g>
<g id="coporativos">
</g>
<g id="headphone">
</g>
<g id="web">
</g>
<g id="llamanos">
</g>
<g id="segurnet">
</g>
<g id="estrellas">
</g>
<g id="fb">
</g>
<g id="ig">
	<g>
		<path class="st28" d="M21.9,0H8.1C3.6,0,0,3.6,0,8.1v13.8C0,26.4,3.6,30,8.1,30h13.8c4.5,0,8.1-3.6,8.1-8.1V8.1
			C30,3.6,26.4,0,21.9,0L21.9,0z M28.2,21.9c0,3.5-2.9,6.4-6.4,6.4H8.1c-3.5,0-6.4-2.9-6.4-6.4V8.1c0-3.5,2.9-6.4,6.4-6.4h13.8
			c3.5,0,6.4,2.9,6.4,6.4V21.9z"/>
		<path class="st28" d="M15,6.8c-4.5,0-8.2,3.7-8.2,8.2c0,4.5,3.7,8.2,8.2,8.2s8.2-3.7,8.2-8.2C23.2,10.5,19.5,6.8,15,6.8z M15,21.4
			c-3.6,0-6.4-2.9-6.4-6.4c0-3.6,2.9-6.4,6.4-6.4c3.6,0,6.4,2.9,6.4,6.4C21.4,18.6,18.6,21.4,15,21.4z"/>
		<path class="st28" d="M23.4,3.9C22.1,3.9,21,5,21,6.3c0,1.3,1.1,2.4,2.4,2.4c1.3,0,2.4-1.1,2.4-2.4S24.7,3.9,23.4,3.9z M23.4,7
			c-0.4,0-0.7-0.3-0.7-0.7c0-0.4,0.3-0.7,0.7-0.7c0.4,0,0.7,0.3,0.7,0.7C24.1,6.7,23.8,7,23.4,7z"/>
	</g>
</g>
<g id="valores">
</g>
<g id="vision">
</g>
<g id="personas">
</g>
<g id="direccion">
</g>
<g id="tele">
</g>
<g id="correo">
</g>
<g id="horario">
</g>
<g id="wassap">
</g>
<g id="seguro">
</g>
</svg>
