<?xml version="1.0" encoding="utf-8"?>
<!-- Generator: Adobe Illustrator 24.0.2, SVG Export Plug-In . SVG Version: 6.00 Build 0)  -->
<svg version="1.1" id="Capa_1" xmlns="http://www.w3.org/2000/svg" xmlns:xlink="http://www.w3.org/1999/xlink" x="0px" y="0px"
	 viewBox="0 0 749.6 257.3" style="enable-background:new 0 0 749.6 257.3;" xml:space="preserve">
<style type="text/css">
	.st0{fill:#909090;stroke:#909090;stroke-miterlimit:10;}
	.st1{fill:#909090;stroke:#909090;stroke-width:0.57;stroke-miterlimit:3.86;}
	.st2{fill:#FF6720;}
	.st3{fill:#909090;}
	.st4{fill:#FFFFFF;}
</style>
<title>logo segurnet 15 años</title>
<g id="_7">
	<path class="st0" d="M218.4,255.6c0-1.2-0.1-2.2-0.1-3.1c1,0.6,2.1,1,3.3,1.2c0.9,0.3,1.8,0.4,2.8,0.3c0.8,0,1.6-0.1,2.3-0.5
		c0.7-0.3,1.3-0.8,1.7-1.4c0.4-0.6,0.6-1.3,0.6-2c0-0.4,0-0.8-0.2-1.2c-0.1-0.4-0.4-0.8-0.6-1.1c-0.3-0.3-0.8-0.9-1.4-1.5
		s-1.7-1.5-2.9-2.6l-1.3-1.3l-1.2-1.2c-0.4-0.4-0.7-0.8-0.9-1.2c-0.2-0.3-0.4-0.7-0.6-1.1c-0.2-0.3-0.3-0.7-0.3-1.1
		c-0.1-0.4-0.2-0.8-0.2-1.2c0-1,0.3-2,0.8-2.9c0.6-1,1.4-1.8,2.5-2.2c1.3-0.6,2.7-0.9,4.2-0.8c1.6,0,3.1,0.2,4.6,0.6
		c0,1,0.2,2,0.3,2.9c-1.5-0.6-3.2-0.9-4.8-0.9c-0.9,0-1.7,0.1-2.5,0.5c-0.6,0.3-1.2,0.8-1.5,1.4c-0.3,0.5-0.5,1.1-0.5,1.7
		c0,0.3,0,0.6,0.1,0.9c0.2,0.3,0.2,0.6,0.5,0.9c0.3,0.4,0.6,0.9,0.9,1.2c0.5,0.6,1,1.1,1.5,1.5c0.6,0.6,1.3,1.2,2,1.7
		c1.1,1.1,2,1.9,2.5,2.3c0.5,0.6,0.9,1.1,1.2,1.5c0.3,0.5,0.6,1,0.8,1.5c0.2,0.5,0.3,1.1,0.3,1.7c0,1-0.2,1.9-0.6,2.8
		c-0.3,0.8-0.9,1.5-1.7,2c-0.7,0.6-1.5,0.9-2.4,1.1c-0.9,0.2-1.9,0.3-2.8,0.3c-0.8,0-1.7,0-2.5-0.1C221,256.3,219.7,256,218.4,255.6
		z"/>
	<path class="st1" d="M218.4,255.6c0-1.2-0.1-2.2-0.1-3.1c1,0.6,2.1,1,3.3,1.2c0.9,0.3,1.8,0.4,2.8,0.3c0.8,0,1.6-0.1,2.3-0.5
		c0.7-0.3,1.3-0.8,1.7-1.4c0.4-0.6,0.6-1.3,0.6-2c0-0.4,0-0.8-0.2-1.2c-0.1-0.4-0.4-0.8-0.6-1.1c-0.3-0.3-0.8-0.9-1.4-1.5
		s-1.7-1.5-2.9-2.6l-1.3-1.3l-1.2-1.2c-0.4-0.4-0.7-0.8-0.9-1.2c-0.2-0.3-0.4-0.7-0.6-1.1c-0.2-0.3-0.3-0.7-0.3-1.1
		c-0.1-0.4-0.2-0.8-0.2-1.2c0-1,0.3-2,0.8-2.9c0.6-1,1.4-1.8,2.5-2.2c1.3-0.6,2.7-0.9,4.2-0.8c1.6,0,3.1,0.2,4.6,0.6
		c0,1,0.2,2,0.3,2.9c-1.5-0.6-3.2-0.9-4.8-0.9c-0.9,0-1.7,0.1-2.5,0.5c-0.6,0.3-1.2,0.8-1.5,1.4c-0.3,0.5-0.5,1.1-0.5,1.7
		c0,0.3,0,0.6,0.1,0.9c0.2,0.3,0.2,0.6,0.5,0.9c0.3,0.4,0.6,0.9,0.9,1.2c0.5,0.6,1,1.1,1.5,1.5c0.6,0.6,1.3,1.2,2,1.7
		c1.1,1.1,2,1.9,2.5,2.3c0.5,0.6,0.9,1.1,1.2,1.5c0.3,0.5,0.6,1,0.8,1.5c0.2,0.5,0.3,1.1,0.3,1.7c0,1-0.2,1.9-0.6,2.8
		c-0.3,0.8-0.9,1.5-1.7,2c-0.7,0.6-1.5,0.9-2.4,1.1c-0.9,0.2-1.9,0.3-2.8,0.3c-0.8,0-1.7,0-2.5-0.1C221,256.3,219.7,256,218.4,255.6
		z"/>
	<path class="st0" d="M235.9,256.2l0.5-6.8l0.5-12.9v-5.3h15c-0.1,0.9-0.2,1.8-0.1,2.6l-1.5-0.2H240l-0.3,8.5h4.6
		c1.5,0,3.6,0,5.9-0.2c0,0.8-0.2,1.7-0.2,2.5h-5.9c-1.1,0-2.8,0-4.8,0.1l-0.3,9.1h8c1.2,0,2.5,0,3.7-0.2c0,0.9-0.2,1.7-0.2,2.6h-7
		L235.9,256.2z"/>
	<path class="st1" d="M235.9,256.2l0.5-6.8l0.5-12.9v-5.3h15c-0.1,0.9-0.2,1.8-0.1,2.6l-1.5-0.2H240l-0.3,8.5h4.6
		c1.5,0,3.6,0,5.9-0.2c0,0.8-0.2,1.7-0.2,2.5h-5.9c-1.1,0-2.8,0-4.8,0.1l-0.3,9.1h8c1.2,0,2.5,0,3.7-0.2c0,0.9-0.2,1.7-0.2,2.6h-7
		L235.9,256.2z"/>
	<path class="st0" d="M268.9,242.3h8.4c-0.3,3.7-0.5,8-0.6,13.2c-2.9,0.7-5.8,1.1-8.8,1.2c-1.8,0-3.6-0.3-5.3-0.8
		c-1.6-0.4-3-1.2-4.2-2.3c-1.2-1.1-2-2.5-2.5-4c-0.6-1.6-1-3.4-0.9-5.1c0-2,0.3-3.9,1.1-5.7c0.7-1.7,1.7-3.3,3.1-4.5
		c1.2-1.2,2.7-2.1,4.3-2.6c1.8-0.5,3.6-0.8,5.4-0.8c2.5,0,4.9,0.3,7.3,0.9c0,0.9,0.1,1.9,0.1,2.9c-1.4-0.5-2.8-0.9-4.2-1.2
		c-1.1-0.2-2.2-0.3-3.3-0.3c-1.5,0-2.9,0.3-4.3,0.8c-1.4,0.4-2.6,1.2-3.6,2.3c-1,1.1-1.7,2.3-2.2,3.7c-0.5,1.5-0.8,3.1-0.8,4.6
		c0,1.4,0.2,2.7,0.6,4c0.7,2.4,2.6,4.3,5,5c1.3,0.5,2.6,0.7,4,0.6c0.9,0,1.9-0.1,2.8-0.3c1.1-0.2,2.2-0.4,3.3-0.8l0.3-8.7h-1.5
		c-1.2,0-2.5,0-3.7,0.2C268.8,243.8,268.9,242.9,268.9,242.3z"/>
	<path class="st1" d="M268.9,242.3h8.4c-0.3,3.7-0.5,8-0.6,13.2c-2.9,0.7-5.8,1.1-8.8,1.2c-1.8,0-3.6-0.3-5.3-0.8
		c-1.6-0.4-3-1.2-4.2-2.3c-1.2-1.1-2-2.5-2.5-4c-0.6-1.6-1-3.4-0.9-5.1c0-2,0.3-3.9,1.1-5.7c0.7-1.7,1.7-3.3,3.1-4.5
		c1.2-1.2,2.7-2.1,4.3-2.6c1.8-0.5,3.6-0.8,5.4-0.8c2.5,0,4.9,0.3,7.3,0.9c0,0.9,0.1,1.9,0.1,2.9c-1.4-0.5-2.8-0.9-4.2-1.2
		c-1.1-0.2-2.2-0.3-3.3-0.3c-1.5,0-2.9,0.3-4.3,0.8c-1.4,0.4-2.6,1.2-3.6,2.3c-1,1.1-1.7,2.3-2.2,3.7c-0.5,1.5-0.8,3.1-0.8,4.6
		c0,1.4,0.2,2.7,0.6,4c0.7,2.4,2.6,4.3,5,5c1.3,0.5,2.6,0.7,4,0.6c0.9,0,1.9-0.1,2.8-0.3c1.1-0.2,2.2-0.4,3.3-0.8l0.3-8.7h-1.5
		c-1.2,0-2.5,0-3.7,0.2C268.8,243.8,268.9,242.9,268.9,242.3z"/>
	<path class="st0" d="M282.6,231.1h3.4l-0.8,14v2c-0.1,1.4,0.2,2.8,0.8,4c0.5,0.9,1.2,1.7,2.2,2.2c1.2,0.5,2.5,0.8,3.9,0.8
		c1,0,2-0.1,2.9-0.5c0.7-0.2,1.3-0.6,1.9-1.1c0.5-0.4,0.9-1,1.2-1.5c0.4-0.6,0.6-1.3,0.6-2c0.2-0.9,0.3-2.6,0.5-5l0.3-5.9
		c0.1-2.2,0.1-4.5,0.1-7h3.3l-0.5,8.7l-0.3,7.1c-0.2,1.7-0.3,2.9-0.5,3.9c-0.2,0.6-0.5,1.3-0.8,1.9c-0.3,0.5-0.7,1-1.1,1.4
		c-0.5,0.5-1.2,1-1.9,1.2c-0.8,0.3-1.5,0.6-2.5,0.9c-1.3,0.3-2.6,0.4-3.9,0.3c-1.2,0-2.4-0.2-3.6-0.5c-0.9-0.3-1.8-0.6-2.6-1.1
		c-0.7-0.5-1.4-1.1-2-1.7c-0.5-0.5-0.8-1.2-0.9-2c-0.3-1-0.5-1.9-0.5-3c0-1.3,0-2.6,0.2-3.9c0.1-1.5,0.1-3.7,0.3-6.6
		C282.4,235,282.6,232.8,282.6,231.1z"/>
	<path class="st1" d="M282.6,231.1h3.4l-0.8,14v2c-0.1,1.4,0.2,2.8,0.8,4c0.5,0.9,1.2,1.7,2.2,2.2c1.2,0.5,2.5,0.8,3.9,0.8
		c1,0,2-0.1,2.9-0.5c0.7-0.2,1.3-0.6,1.9-1.1c0.5-0.4,0.9-1,1.2-1.5c0.4-0.6,0.6-1.3,0.6-2c0.2-0.9,0.3-2.6,0.5-5l0.3-5.9
		c0.1-2.2,0.1-4.5,0.1-7h3.3l-0.5,8.7l-0.3,7.1c-0.2,1.7-0.3,2.9-0.5,3.9c-0.2,0.6-0.5,1.3-0.8,1.9c-0.3,0.5-0.7,1-1.1,1.4
		c-0.5,0.5-1.2,1-1.9,1.2c-0.8,0.3-1.5,0.6-2.5,0.9c-1.3,0.3-2.6,0.4-3.9,0.3c-1.2,0-2.4-0.2-3.6-0.5c-0.9-0.3-1.8-0.6-2.6-1.1
		c-0.7-0.5-1.4-1.1-2-1.7c-0.5-0.5-0.8-1.2-0.9-2c-0.3-1-0.5-1.9-0.5-3c0-1.3,0-2.6,0.2-3.9c0.1-1.5,0.1-3.7,0.3-6.6
		C282.4,235,282.6,232.8,282.6,231.1z"/>
	<path class="st0" d="M307,256.2l0.3-5l0.5-9.1l0.1-7.7v-3.2h8.4c1,0,2,0.1,2.9,0.3c0.9,0.2,1.7,0.5,2.3,1.1c0.6,0.6,1.2,1.2,1.5,2
		c0.3,0.8,0.5,1.7,0.5,2.6c0,0.8-0.2,1.7-0.5,2.5c-0.3,0.8-0.6,1.5-1.1,2.2c-0.5,0.6-1.1,1.1-1.7,1.5c-0.6,0.4-1.3,0.6-2,0.8
		c-0.7,0.2-1.4,0.3-2.2,0.3l2.9,5.1l3.1,5.1c0.3,0.5,0.6,1.1,0.9,1.6h-3.5l-1.2-2.5c-0.3-0.5-0.5-0.9-0.8-1.4
		c-0.3-0.5-0.5-1-0.8-1.5l-3.9-6.8c-0.2-0.3-0.5-0.8-0.8-1.4c0.8,0.2,1.5,0.3,2.3,0.3c1.1,0,2.1-0.2,3.1-0.6c0.9-0.4,1.6-1,2.2-1.9
		c0.5-0.9,0.7-1.8,0.8-2.8c0-0.5-0.1-1-0.3-1.5c-0.2-0.5-0.4-0.9-0.8-1.2c-0.3-0.3-0.7-0.6-1.1-0.8c-0.4-0.2-0.8-0.3-1.2-0.3
		c-0.5,0-1.1-0.1-1.7-0.1h-4.5c-0.3,8.2-0.6,15.8-0.6,22.6L307,256.2L307,256.2z"/>
	<path class="st1" d="M307,256.2l0.3-5l0.5-9.1l0.1-7.7v-3.2h8.4c1,0,2,0.1,2.9,0.3c0.9,0.2,1.7,0.5,2.3,1.1c0.6,0.6,1.2,1.2,1.5,2
		c0.3,0.8,0.5,1.7,0.5,2.6c0,0.8-0.2,1.7-0.5,2.5c-0.3,0.8-0.6,1.5-1.1,2.2c-0.5,0.6-1.1,1.1-1.7,1.5c-0.6,0.4-1.3,0.6-2,0.8
		c-0.7,0.2-1.4,0.3-2.2,0.3l2.9,5.1l3.1,5.1c0.3,0.5,0.6,1.1,0.9,1.6h-3.5l-1.2-2.5c-0.3-0.5-0.5-0.9-0.8-1.4
		c-0.3-0.5-0.5-1-0.8-1.5l-3.9-6.8c-0.2-0.3-0.5-0.8-0.8-1.4c0.8,0.2,1.5,0.3,2.3,0.3c1.1,0,2.1-0.2,3.1-0.6c0.9-0.4,1.6-1,2.2-1.9
		c0.5-0.9,0.7-1.8,0.8-2.8c0-0.5-0.1-1-0.3-1.5c-0.2-0.5-0.4-0.9-0.8-1.2c-0.3-0.3-0.7-0.6-1.1-0.8c-0.4-0.2-0.8-0.3-1.2-0.3
		c-0.5,0-1.1-0.1-1.7-0.1h-4.5c-0.3,8.2-0.6,15.8-0.6,22.6L307,256.2L307,256.2z"/>
	<path class="st0" d="M339,233.3c-1.3,0-2.6,0.3-3.9,0.8c-1.3,0.5-2.4,1.3-3.3,2.3c-0.9,1.1-1.6,2.4-2,3.7c-0.4,1.4-0.7,2.9-0.6,4.3
		c0,1.4,0.2,2.7,0.6,4c0.4,1.2,1.1,2.3,1.9,3.3c0.8,0.9,1.9,1.6,3.1,1.9c1.2,0.4,2.5,0.6,3.7,0.6c1.3,0,2.5-0.2,3.7-0.6
		c1.2-0.5,2.2-1.2,3.1-2.2c0.9-1,1.6-2.2,1.9-3.6c0.4-1.4,0.6-2.9,0.6-4.3c0-1.4-0.2-2.8-0.6-4.2c-0.3-1.3-0.9-2.5-1.9-3.4
		c-0.8-0.9-1.8-1.6-2.9-2C341.4,233.4,340.2,233.2,339,233.3z M339.2,230.8c1.6,0,3.2,0.3,4.8,0.8c1.5,0.5,2.9,1.4,4,2.6
		c1.1,1.2,1.9,2.5,2.5,4c0.5,1.6,0.8,3.3,0.8,5c0,1.8-0.3,3.6-0.8,5.4c-0.5,1.6-1.4,3.2-2.5,4.5c-1.1,1.3-2.6,2.2-4.2,2.8
		c-1.7,0.6-3.5,0.9-5.3,0.9c-1.7,0-3.4-0.3-5-0.8c-1.5-0.5-2.8-1.4-4-2.5c-1.1-1.1-2-2.5-2.5-4c-0.5-1.6-0.8-3.3-0.8-5
		c0-1.8,0.3-3.7,0.9-5.4c0.6-1.6,1.5-3.2,2.6-4.5c1.2-1.2,2.6-2.1,4.2-2.6C335.6,231.2,337.4,230.8,339.2,230.8z"/>
	<path class="st1" d="M339,233.3c-1.3,0-2.6,0.3-3.9,0.8c-1.3,0.5-2.4,1.3-3.3,2.3c-0.9,1.1-1.6,2.4-2,3.7c-0.4,1.4-0.7,2.9-0.6,4.3
		c0,1.4,0.2,2.7,0.6,4c0.4,1.2,1.1,2.3,1.9,3.3c0.8,0.9,1.9,1.6,3.1,1.9c1.2,0.4,2.5,0.6,3.7,0.6c1.3,0,2.5-0.2,3.7-0.6
		c1.2-0.5,2.2-1.2,3.1-2.2c0.9-1,1.6-2.2,1.9-3.6c0.4-1.4,0.6-2.9,0.6-4.3c0-1.4-0.2-2.8-0.6-4.2c-0.3-1.3-0.9-2.5-1.9-3.4
		c-0.8-0.9-1.8-1.6-2.9-2C341.4,233.4,340.2,233.2,339,233.3z M339.2,230.8c1.6,0,3.2,0.3,4.8,0.8c1.5,0.5,2.9,1.4,4,2.6
		c1.1,1.2,1.9,2.5,2.5,4c0.5,1.6,0.8,3.3,0.8,5c0,1.8-0.3,3.6-0.8,5.4c-0.5,1.6-1.4,3.2-2.5,4.5c-1.1,1.3-2.6,2.2-4.2,2.8
		c-1.7,0.6-3.5,0.9-5.3,0.9c-1.7,0-3.4-0.3-5-0.8c-1.5-0.5-2.8-1.4-4-2.5c-1.1-1.1-2-2.5-2.5-4c-0.5-1.6-0.8-3.3-0.8-5
		c0-1.8,0.3-3.7,0.9-5.4c0.6-1.6,1.5-3.2,2.6-4.5c1.2-1.2,2.6-2.1,4.2-2.6C335.6,231.2,337.4,230.8,339.2,230.8z"/>
	<path class="st0" d="M353.9,255.6c0-1.2-0.2-2.2-0.2-3.1c1,0.6,2.1,1,3.3,1.2c0.9,0.3,1.8,0.4,2.8,0.3c0.8,0,1.6-0.1,2.3-0.5
		c0.7-0.3,1.3-0.8,1.7-1.4c0.4-0.6,0.6-1.3,0.6-2c0-0.4,0-0.8-0.2-1.2c-0.1-0.4-0.3-0.8-0.6-1.1c-0.3-0.3-0.8-0.9-1.4-1.5
		s-1.7-1.5-2.9-2.6l-1.4-0.9l-1.2-1.2c-0.4-0.4-0.7-0.8-0.9-1.2c-0.2-0.3-0.4-0.7-0.6-1.1c-0.2-0.3-0.3-0.7-0.3-1.1
		c-0.1-0.4-0.2-0.8-0.2-1.2c0-1,0.3-2,0.8-2.9c0.5-1,1.4-1.8,2.5-2.2c1.3-0.6,2.7-0.9,4.2-0.8c1.6,0,3.1,0.2,4.6,0.6
		c0.1,1,0.2,2,0.3,3c-1.5-0.6-3.2-0.9-4.8-0.9c-0.8,0-1.7,0.1-2.5,0.5c-0.6,0.3-1.2,0.8-1.5,1.4c-0.3,0.5-0.5,1.1-0.5,1.7
		c0,0.3,0,0.6,0.2,0.9c0.2,0.3,0.2,0.6,0.5,0.9c0.3,0.4,0.6,0.9,0.9,1.2c0.5,0.6,1,1.1,1.5,1.5c0.6,0.6,1.3,1.2,2,1.7
		c1.1,1.1,2,1.9,2.5,2.3s0.9,1.1,1.2,1.5c0.4,0.5,0.6,1,0.8,1.5c0.2,0.5,0.3,1.1,0.3,1.7c0,1-0.2,1.9-0.6,2.8c-0.4,0.8-1,1.5-1.7,2
		c-0.7,0.6-1.6,1-2.5,1.1c-0.9,0.2-1.9,0.3-2.8,0.3c-0.8,0-1.7,0-2.5-0.1C356.7,256.4,355.5,256.1,353.9,255.6z"/>
	<path class="st1" d="M353.9,255.6c0-1.2-0.2-2.2-0.2-3.1c1,0.6,2.1,1,3.3,1.2c0.9,0.3,1.8,0.4,2.8,0.3c0.8,0,1.6-0.1,2.3-0.5
		c0.7-0.3,1.3-0.8,1.7-1.4c0.4-0.6,0.6-1.3,0.6-2c0-0.4,0-0.8-0.2-1.2c-0.1-0.4-0.3-0.8-0.6-1.1c-0.3-0.3-0.8-0.9-1.4-1.5
		s-1.7-1.5-2.9-2.6l-1.4-0.9l-1.2-1.2c-0.4-0.4-0.7-0.8-0.9-1.2c-0.2-0.3-0.4-0.7-0.6-1.1c-0.2-0.3-0.3-0.7-0.3-1.1
		c-0.1-0.4-0.2-0.8-0.2-1.2c0-1,0.3-2,0.8-2.9c0.5-1,1.4-1.8,2.5-2.2c1.3-0.6,2.7-0.9,4.2-0.8c1.6,0,3.1,0.2,4.6,0.6
		c0.1,1,0.2,2,0.3,3c-1.5-0.6-3.2-0.9-4.8-0.9c-0.8,0-1.7,0.1-2.5,0.5c-0.6,0.3-1.2,0.8-1.5,1.4c-0.3,0.5-0.5,1.1-0.5,1.7
		c0,0.3,0,0.6,0.2,0.9c0.2,0.3,0.2,0.6,0.5,0.9c0.3,0.4,0.6,0.9,0.9,1.2c0.5,0.6,1,1.1,1.5,1.5c0.6,0.6,1.3,1.2,2,1.7
		c1.1,1.1,2,1.9,2.5,2.3s0.9,1.1,1.2,1.5c0.4,0.5,0.6,1,0.8,1.5c0.2,0.5,0.3,1.1,0.3,1.7c0,1-0.2,1.9-0.6,2.8c-0.4,0.8-1,1.5-1.7,2
		c-0.7,0.6-1.6,1-2.5,1.1c-0.9,0.2-1.9,0.3-2.8,0.3c-0.8,0-1.7,0-2.5-0.1C356.7,256.4,355.5,256.1,353.9,255.6z"/>
	<path class="st0" d="M393.7,251.9c-1.4-1.4-2.6-2.8-3.7-3.9s-2.2-2.5-3.3-3.9c-0.8,0.5-1.5,1-2.2,1.5c-0.5,0.4-0.9,0.9-1.2,1.4
		c-0.3,0.4-0.5,0.9-0.6,1.4c-0.1,0.4-0.2,0.8-0.2,1.2c-0.1,0.9,0.2,1.8,0.8,2.5c0.5,0.8,1.2,1.4,2,1.7c0.9,0.5,1.9,0.7,2.9,0.6
		c0.6,0,1.2,0,1.9-0.2c0.6-0.1,1.1-0.3,1.5-0.6c0.4-0.2,0.7-0.5,1.1-0.8C393.1,252.6,393.4,252.3,393.7,251.9z M396.3,245.1h2.6
		c0,1.3-0.2,2.5-0.5,3.7c-0.3,1.1-0.7,2.2-1.2,3.3c0.6,0.8,1.4,1.4,2,2.2c0.7,0.6,1.4,1.3,2,2h-3.6l-2.5-2.5
		c-0.4,0.3-0.8,0.6-1.1,0.9c-0.3,0.3-0.7,0.6-1.1,0.8c-0.4,0.3-0.9,0.5-1.4,0.6c-0.5,0.1-1.1,0.3-1.9,0.5c-0.7,0.1-1.3,0.2-2,0.2
		c-1.5,0-3-0.3-4.3-0.8c-1.2-0.6-2.2-1.4-2.9-2.5c-0.6-1.1-0.9-2.3-0.9-3.6c0-0.7,0.1-1.3,0.3-2c0.2-0.7,0.5-1.3,0.9-1.9
		c0.5-0.7,1.1-1.3,1.8-1.9c0.9-0.7,1.9-1.4,2.9-2c-0.7-1-1.3-2.1-1.7-3.3c-0.3-0.8-0.5-1.6-0.5-2.5c0-0.7,0.1-1.5,0.5-2.2
		c0.3-0.7,0.8-1.4,1.4-1.9c0.6-0.6,1.4-1,2.2-1.2c0.8-0.3,1.6-0.4,2.5-0.3c0.6,0,1.2,0,1.9,0.2c0.6,0.1,1.4,0.3,2.3,0.6v2.6
		c-0.6-0.4-1.2-0.7-1.9-0.9c-0.5-0.2-1.1-0.3-1.7-0.3c-0.7,0-1.5,0.1-2.2,0.5c-0.7,0.3-1.2,0.8-1.5,1.4c-0.3,0.6-0.5,1.3-0.5,2
		c0,0.5,0,0.9,0.2,1.4c0.2,0.6,0.4,1.2,0.8,1.7c0.6,1.2,1.4,2.4,2.3,3.4c0.8,1.1,1.9,2.2,2.8,3.3c0.5,0.5,1.4,1.5,2.9,3.1
		c0.1-0.4,0.3-0.7,0.5-1.1c0.1-0.4,0.2-0.7,0.3-1.1c0.1-0.5,0.2-0.9,0.2-1.4C396.3,246.1,396.3,245.7,396.3,245.1L396.3,245.1z"/>
	<path class="st1" d="M393.7,251.9c-1.4-1.4-2.6-2.8-3.7-3.9s-2.2-2.5-3.3-3.9c-0.8,0.5-1.5,1-2.2,1.5c-0.5,0.4-0.9,0.9-1.2,1.4
		c-0.3,0.4-0.5,0.9-0.6,1.4c-0.1,0.4-0.2,0.8-0.2,1.2c-0.1,0.9,0.2,1.8,0.8,2.5c0.5,0.8,1.2,1.4,2,1.7c0.9,0.5,1.9,0.7,2.9,0.6
		c0.6,0,1.2,0,1.9-0.2c0.6-0.1,1.1-0.3,1.5-0.6c0.4-0.2,0.7-0.5,1.1-0.8C393.1,252.6,393.4,252.3,393.7,251.9z M396.3,245.1h2.6
		c0,1.3-0.2,2.5-0.5,3.7c-0.3,1.1-0.7,2.2-1.2,3.3c0.6,0.8,1.4,1.4,2,2.2c0.7,0.6,1.4,1.3,2,2h-3.6l-2.5-2.5
		c-0.4,0.3-0.8,0.6-1.1,0.9c-0.3,0.3-0.7,0.6-1.1,0.8c-0.4,0.3-0.9,0.5-1.4,0.6c-0.5,0.1-1.1,0.3-1.9,0.5c-0.7,0.1-1.3,0.2-2,0.2
		c-1.5,0-3-0.3-4.3-0.8c-1.2-0.6-2.2-1.4-2.9-2.5c-0.6-1.1-0.9-2.3-0.9-3.6c0-0.7,0.1-1.3,0.3-2c0.2-0.7,0.5-1.3,0.9-1.9
		c0.5-0.7,1.1-1.3,1.8-1.9c0.9-0.7,1.9-1.4,2.9-2c-0.7-1-1.3-2.1-1.7-3.3c-0.3-0.8-0.5-1.6-0.5-2.5c0-0.7,0.1-1.5,0.5-2.2
		c0.3-0.7,0.8-1.4,1.4-1.9c0.6-0.6,1.4-1,2.2-1.2c0.8-0.3,1.6-0.4,2.5-0.3c0.6,0,1.2,0,1.9,0.2c0.6,0.1,1.4,0.3,2.3,0.6v2.6
		c-0.6-0.4-1.2-0.7-1.9-0.9c-0.5-0.2-1.1-0.3-1.7-0.3c-0.7,0-1.5,0.1-2.2,0.5c-0.7,0.3-1.2,0.8-1.5,1.4c-0.3,0.6-0.5,1.3-0.5,2
		c0,0.5,0,0.9,0.2,1.4c0.2,0.6,0.4,1.2,0.8,1.7c0.6,1.2,1.4,2.4,2.3,3.4c0.8,1.1,1.9,2.2,2.8,3.3c0.5,0.5,1.4,1.5,2.9,3.1
		c0.1-0.4,0.3-0.7,0.5-1.1c0.1-0.4,0.2-0.7,0.3-1.1c0.1-0.5,0.2-0.9,0.2-1.4C396.3,246.1,396.3,245.7,396.3,245.1L396.3,245.1z"/>
	<path class="st0" d="M412.9,256.2l0.3-5l0.3-9.1l0.2-7.7v-3.2h8.4c1,0,2,0.1,2.9,0.3c1.7,0.3,3.2,1.5,3.9,3.1
		c0.3,0.8,0.5,1.7,0.5,2.6c0,0.8-0.1,1.7-0.5,2.5c-0.3,0.8-0.6,1.5-1.1,2.2c-0.5,0.6-1.1,1.1-1.7,1.5c-0.6,0.4-1.3,0.6-2,0.8
		c-0.7,0.2-1.4,0.3-2.2,0.3l2.9,5.1l3.1,5.1c0.3,0.5,0.6,1.1,0.9,1.6h-3.6l-1.2-2.5c-0.3-0.5-0.5-0.9-0.8-1.4
		c-0.3-0.5-0.6-1-0.8-1.5l-3.9-6.8c-0.2-0.3-0.5-0.8-0.8-1.4c0.8,0.2,1.5,0.3,2.3,0.3c1.1,0,2.1-0.2,3.1-0.6c0.9-0.4,1.6-1,2.2-1.9
		c0.5-0.9,0.7-1.8,0.8-2.8c0-0.5-0.1-1-0.3-1.5c-0.2-0.5-0.4-0.9-0.8-1.2c-0.3-0.3-0.7-0.6-1.1-0.8c-0.4-0.2-0.8-0.3-1.2-0.3
		c-0.5,0-1.1-0.1-1.7-0.1h-4.5c-0.3,8.2-0.6,15.8-0.6,22.6H412.9L412.9,256.2z"/>
	<path class="st1" d="M412.9,256.2l0.3-5l0.3-9.1l0.2-7.7v-3.2h8.4c1,0,2,0.1,2.9,0.3c1.7,0.3,3.2,1.5,3.9,3.1
		c0.3,0.8,0.5,1.7,0.5,2.6c0,0.8-0.1,1.7-0.5,2.5c-0.3,0.8-0.6,1.5-1.1,2.2c-0.5,0.6-1.1,1.1-1.7,1.5c-0.6,0.4-1.3,0.6-2,0.8
		c-0.7,0.2-1.4,0.3-2.2,0.3l2.9,5.1l3.1,5.1c0.3,0.5,0.6,1.1,0.9,1.6h-3.6l-1.2-2.5c-0.3-0.5-0.5-0.9-0.8-1.4
		c-0.3-0.5-0.6-1-0.8-1.5l-3.9-6.8c-0.2-0.3-0.5-0.8-0.8-1.4c0.8,0.2,1.5,0.3,2.3,0.3c1.1,0,2.1-0.2,3.1-0.6c0.9-0.4,1.6-1,2.2-1.9
		c0.5-0.9,0.7-1.8,0.8-2.8c0-0.5-0.1-1-0.3-1.5c-0.2-0.5-0.4-0.9-0.8-1.2c-0.3-0.3-0.7-0.6-1.1-0.8c-0.4-0.2-0.8-0.3-1.2-0.3
		c-0.5,0-1.1-0.1-1.7-0.1h-4.5c-0.3,8.2-0.6,15.8-0.6,22.6H412.9L412.9,256.2z"/>
	<path class="st0" d="M432.7,256.2l0.5-6.8l0.5-12.9v-5.3h15c-0.1,0.9-0.2,1.8-0.2,2.6l-1.5-0.2h-10.2l-0.3,8.5h4.6
		c1.5,0,3.6,0,5.9-0.2c-0.1,0.8-0.2,1.7-0.2,2.5h-5.9c-1.1,0-2.8,0-4.8,0.1l-0.3,9.1h8c1.2,0,2.5,0,3.7-0.2
		c-0.1,0.9-0.2,1.8-0.2,2.6h-7L432.7,256.2z"/>
	<path class="st1" d="M432.7,256.2l0.5-6.8l0.5-12.9v-5.3h15c-0.1,0.9-0.2,1.8-0.2,2.6l-1.5-0.2h-10.2l-0.3,8.5h4.6
		c1.5,0,3.6,0,5.9-0.2c-0.1,0.8-0.2,1.7-0.2,2.5h-5.9c-1.1,0-2.8,0-4.8,0.1l-0.3,9.1h8c1.2,0,2.5,0,3.7-0.2
		c-0.1,0.9-0.2,1.8-0.2,2.6h-7L432.7,256.2z"/>
	<path class="st0" d="M458.6,243.4h7.6l-3.1-9.8L458.6,243.4z M449.3,256.2l3.1-6.4l7.9-16.6l0.9-2h4l3,9l5.4,16.1h-3.4
		c-0.3-1.2-0.8-2.9-1.5-5.1s-1.2-4-1.9-5.4h-9.3l-2.5,5.4l-2.2,5L449.3,256.2L449.3,256.2z"/>
	<path class="st1" d="M458.6,243.4h7.6l-3.1-9.8L458.6,243.4z M449.3,256.2l3.1-6.4l7.9-16.6l0.9-2h4l3,9l5.4,16.1h-3.4
		c-0.3-1.2-0.8-2.9-1.5-5.1s-1.2-4-1.9-5.4h-9.3l-2.5,5.4l-2.2,5L449.3,256.2L449.3,256.2z"/>
	<path class="st0" d="M475.7,255.6c0-1.2-0.2-2.2-0.2-3.1c1,0.6,2.1,1,3.3,1.2c0.9,0.3,1.8,0.4,2.8,0.3c0.8,0,1.6-0.1,2.3-0.5
		c0.7-0.3,1.3-0.8,1.7-1.4c0.4-0.6,0.6-1.3,0.6-2c0-0.4,0-0.8-0.2-1.2c-0.1-0.4-0.4-0.8-0.6-1.1c-0.3-0.3-0.8-0.9-1.4-1.5
		s-1.7-1.5-2.9-2.6l-1.2-1.2l-1.2-1.2c-0.3-0.5-0.8-0.9-0.9-1.2c-0.2-0.3-0.4-0.7-0.6-1.1c-0.2-0.3-0.3-0.7-0.3-1.1
		c-0.1-0.4-0.2-0.8-0.2-1.2c0-1,0.3-2,0.8-2.9c0.6-1,1.5-1.7,2.5-2.2c1.3-0.6,2.7-0.9,4.2-0.8c1.6,0,3.1,0.2,4.7,0.6
		c0,1,0.1,2,0.3,2.9c-1.5-0.6-3.2-0.9-4.8-0.9c-0.8,0-1.7,0.1-2.5,0.5c-0.6,0.3-1.2,0.8-1.5,1.4c-0.3,0.5-0.5,1.1-0.5,1.7
		c0,0.3,0,0.6,0.2,0.9c0.2,0.3,0.3,0.6,0.5,0.9c0.3,0.4,0.6,0.9,0.9,1.2l1.5,1.5c0.6,0.6,1.3,1.2,2,1.7c1.1,1.1,2,1.9,2.5,2.3
		c0.5,0.6,0.9,1.1,1.2,1.5c0.3,0.5,0.6,1,0.8,1.5c0.2,0.5,0.3,1.1,0.3,1.7c0,1-0.2,1.9-0.6,2.8c-0.4,0.8-1,1.5-1.7,2
		c-0.7,0.6-1.6,1-2.5,1.1c-0.9,0.2-1.8,0.3-2.8,0.3c-0.8,0-1.7,0-2.5-0.1C478.3,256.3,477,256,475.7,255.6z"/>
	<path class="st1" d="M475.7,255.6c0-1.2-0.2-2.2-0.2-3.1c1,0.6,2.1,1,3.3,1.2c0.9,0.3,1.8,0.4,2.8,0.3c0.8,0,1.6-0.1,2.3-0.5
		c0.7-0.3,1.3-0.8,1.7-1.4c0.4-0.6,0.6-1.3,0.6-2c0-0.4,0-0.8-0.2-1.2c-0.1-0.4-0.4-0.8-0.6-1.1c-0.3-0.3-0.8-0.9-1.4-1.5
		s-1.7-1.5-2.9-2.6l-1.2-1.2l-1.2-1.2c-0.3-0.5-0.8-0.9-0.9-1.2c-0.2-0.3-0.4-0.7-0.6-1.1c-0.2-0.3-0.3-0.7-0.3-1.1
		c-0.1-0.4-0.2-0.8-0.2-1.2c0-1,0.3-2,0.8-2.9c0.6-1,1.5-1.7,2.5-2.2c1.3-0.6,2.7-0.9,4.2-0.8c1.6,0,3.1,0.2,4.7,0.6
		c0,1,0.1,2,0.3,2.9c-1.5-0.6-3.2-0.9-4.8-0.9c-0.8,0-1.7,0.1-2.5,0.5c-0.6,0.3-1.2,0.8-1.5,1.4c-0.3,0.5-0.5,1.1-0.5,1.7
		c0,0.3,0,0.6,0.2,0.9c0.2,0.3,0.3,0.6,0.5,0.9c0.3,0.4,0.6,0.9,0.9,1.2l1.5,1.5c0.6,0.6,1.3,1.2,2,1.7c1.1,1.1,2,1.9,2.5,2.3
		c0.5,0.6,0.9,1.1,1.2,1.5c0.3,0.5,0.6,1,0.8,1.5c0.2,0.5,0.3,1.1,0.3,1.7c0,1-0.2,1.9-0.6,2.8c-0.4,0.8-1,1.5-1.7,2
		c-0.7,0.6-1.6,1-2.5,1.1c-0.9,0.2-1.8,0.3-2.8,0.3c-0.8,0-1.7,0-2.5-0.1C478.3,256.3,477,256,475.7,255.6z"/>
	<path class="st0" d="M493.2,256.2l0.5-6.8l0.5-12.9v-5.3h15c0,0.8-0.2,1.7-0.2,2.6l-1.5-0.2h-10.2l-0.3,8.5h4.6
		c1.5,0,3.6,0,5.9-0.2c-0.1,0.8-0.2,1.7-0.2,2.5h-5.9c-1.1,0-2.8,0-4.8,0.1l-0.3,9.1h8c1.2,0,2.5,0,3.7-0.2
		c-0.1,0.9-0.2,1.8-0.2,2.6h-7L493.2,256.2z"/>
	<path class="st1" d="M493.2,256.2l0.5-6.8l0.5-12.9v-5.3h15c0,0.8-0.2,1.7-0.2,2.6l-1.5-0.2h-10.2l-0.3,8.5h4.6
		c1.5,0,3.6,0,5.9-0.2c-0.1,0.8-0.2,1.7-0.2,2.5h-5.9c-1.1,0-2.8,0-4.8,0.1l-0.3,9.1h8c1.2,0,2.5,0,3.7-0.2
		c-0.1,0.9-0.2,1.8-0.2,2.6h-7L493.2,256.2z"/>
	<path class="st0" d="M526.2,242.3h8.2c-0.3,3.7-0.5,8-0.6,13.2c-2.9,0.7-5.8,1.1-8.8,1.2c-1.8,0-3.5-0.3-5.3-0.8
		c-1.6-0.4-3-1.2-4.2-2.3c-1.2-1.1-2.1-2.5-2.6-4c-1.3-3.5-1.2-7.4,0.2-10.8c0.7-1.7,1.7-3.3,3.1-4.5c1.2-1.3,2.8-2.2,4.5-2.6
		c1.8-0.5,3.6-0.8,5.4-0.8c2.5,0,4.9,0.3,7.3,0.9c0,0.9,0.2,1.9,0.2,2.9c-1.4-0.5-2.8-0.9-4.2-1.2c-1.1-0.2-2.2-0.3-3.3-0.3
		c-1.5,0-2.9,0.3-4.3,0.8c-1.4,0.4-2.6,1.2-3.6,2.3c-1,1.1-1.7,2.4-2.3,3.7c-0.5,1.5-0.7,3.1-0.8,4.6c0,1.4,0.2,2.7,0.6,4
		c0.4,1.2,1,2.2,1.9,3.1c0.9,0.8,1.9,1.5,3.1,1.9c1.2,0.4,2.6,0.7,3.9,0.6c0.9,0,1.9-0.1,2.8-0.3c1.1-0.2,2.2-0.5,3.3-0.8l0.3-8.7
		h-1.5c-1.2,0-2.5,0-3.7,0.2C526.1,243.9,526.3,243.1,526.2,242.3z"/>
	<path class="st1" d="M526.2,242.3h8.2c-0.3,3.7-0.5,8-0.6,13.2c-2.9,0.7-5.8,1.1-8.8,1.2c-1.8,0-3.5-0.3-5.3-0.8
		c-1.6-0.4-3-1.2-4.2-2.3c-1.2-1.1-2.1-2.5-2.6-4c-1.3-3.5-1.2-7.4,0.2-10.8c0.7-1.7,1.7-3.3,3.1-4.5c1.2-1.3,2.8-2.2,4.5-2.6
		c1.8-0.5,3.6-0.8,5.4-0.8c2.5,0,4.9,0.3,7.3,0.9c0,0.9,0.2,1.9,0.2,2.9c-1.4-0.5-2.8-0.9-4.2-1.2c-1.1-0.2-2.2-0.3-3.3-0.3
		c-1.5,0-2.9,0.3-4.3,0.8c-1.4,0.4-2.6,1.2-3.6,2.3c-1,1.1-1.7,2.4-2.3,3.7c-0.5,1.5-0.7,3.1-0.8,4.6c0,1.4,0.2,2.7,0.6,4
		c0.4,1.2,1,2.2,1.9,3.1c0.9,0.8,1.9,1.5,3.1,1.9c1.2,0.4,2.6,0.7,3.9,0.6c0.9,0,1.9-0.1,2.8-0.3c1.1-0.2,2.2-0.5,3.3-0.8l0.3-8.7
		h-1.5c-1.2,0-2.5,0-3.7,0.2C526.1,243.9,526.3,243.1,526.2,242.3z"/>
	<path class="st0" d="M539.8,231.1h3.4l-0.8,14v2c-0.1,1.4,0.1,2.7,0.6,4c0.5,0.9,1.2,1.7,2.2,2.2c1.2,0.5,2.5,0.8,3.9,0.8
		c1,0,2-0.1,2.9-0.5c0.7-0.2,1.3-0.6,1.9-1.1c0.5-0.4,0.9-1,1.2-1.5c0.4-0.6,0.6-1.3,0.6-2c0.2-0.9,0.3-2.6,0.5-5l0.3-5.9
		c0.2-2.2,0.2-4.5,0.2-7h3.3l-0.5,8.7l-0.3,7.1c-0.2,1.7-0.3,2.9-0.5,3.9c-0.2,0.6-0.5,1.3-0.8,1.9c-0.3,0.5-0.7,1-1.1,1.4
		c-0.5,0.5-1.2,1-1.9,1.2c-0.8,0.3-1.5,0.6-2.5,0.9c-1.3,0.3-2.6,0.4-3.9,0.3c-1.2,0-2.4-0.2-3.6-0.5c-0.9-0.3-1.8-0.6-2.6-1.1
		c-0.7-0.5-1.4-1.1-2-1.7c-0.5-0.6-0.8-1.3-0.9-2c-0.3-0.9-0.5-1.9-0.5-2.9c0-1.3,0-2.6,0.2-3.9c0.2-1.5,0.2-3.7,0.3-6.6
		C539.8,235.6,539.9,233.3,539.8,231.1z"/>
	<path class="st1" d="M539.8,231.1h3.4l-0.8,14v2c-0.1,1.4,0.1,2.7,0.6,4c0.5,0.9,1.2,1.7,2.2,2.2c1.2,0.5,2.5,0.8,3.9,0.8
		c1,0,2-0.1,2.9-0.5c0.7-0.2,1.3-0.6,1.9-1.1c0.5-0.4,0.9-1,1.2-1.5c0.4-0.6,0.6-1.3,0.6-2c0.2-0.9,0.3-2.6,0.5-5l0.3-5.9
		c0.2-2.2,0.2-4.5,0.2-7h3.3l-0.5,8.7l-0.3,7.1c-0.2,1.7-0.3,2.9-0.5,3.9c-0.2,0.6-0.5,1.3-0.8,1.9c-0.3,0.5-0.7,1-1.1,1.4
		c-0.5,0.5-1.2,1-1.9,1.2c-0.8,0.3-1.5,0.6-2.5,0.9c-1.3,0.3-2.6,0.4-3.9,0.3c-1.2,0-2.4-0.2-3.6-0.5c-0.9-0.3-1.8-0.6-2.6-1.1
		c-0.7-0.5-1.4-1.1-2-1.7c-0.5-0.6-0.8-1.3-0.9-2c-0.3-0.9-0.5-1.9-0.5-2.9c0-1.3,0-2.6,0.2-3.9c0.2-1.5,0.2-3.7,0.3-6.6
		C539.8,235.6,539.9,233.3,539.8,231.1z"/>
	<path class="st0" d="M564.3,256.2l0.3-5l0.5-9.1l0.2-7.7v-3.2h8.4c1,0,2,0.1,2.9,0.3c0.8,0.2,1.6,0.5,2.3,1.1
		c0.6,0.6,1.2,1.2,1.5,2c0.3,0.8,0.5,1.7,0.5,2.6c0,0.8-0.1,1.7-0.3,2.5c-0.3,0.8-0.6,1.5-1.1,2.2c-0.5,0.6-1.1,1.1-1.7,1.5
		c-0.6,0.4-1.3,0.6-2,0.8c-0.7,0.2-1.4,0.3-2.2,0.3l2.9,5.1l3.1,5.1c0.3,0.5,0.6,1.1,0.9,1.6H577l-1.2-2.5c-0.3-0.5-0.5-0.9-0.8-1.4
		c-0.3-0.5-0.5-1-0.8-1.5l-3.9-6.8c-0.2-0.3-0.5-0.8-0.8-1.4c0.8,0.2,1.5,0.3,2.3,0.3c1.1,0,2.1-0.2,3.1-0.6c0.9-0.4,1.6-1,2.2-1.9
		c0.5-0.9,0.7-1.8,0.8-2.8c0-0.5,0-1-0.2-1.5c-0.2-0.5-0.4-0.9-0.8-1.2c-0.3-0.3-0.7-0.6-1.1-0.8c-0.4-0.2-0.8-0.3-1.2-0.3
		c-0.5,0-1.1-0.1-1.7-0.1h-4.5c-0.3,8.2-0.6,15.8-0.6,22.6L564.3,256.2L564.3,256.2z"/>
	<path class="st1" d="M564.3,256.2l0.3-5l0.5-9.1l0.2-7.7v-3.2h8.4c1,0,2,0.1,2.9,0.3c0.8,0.2,1.6,0.5,2.3,1.1
		c0.6,0.6,1.2,1.2,1.5,2c0.3,0.8,0.5,1.7,0.5,2.6c0,0.8-0.1,1.7-0.3,2.5c-0.3,0.8-0.6,1.5-1.1,2.2c-0.5,0.6-1.1,1.1-1.7,1.5
		c-0.6,0.4-1.3,0.6-2,0.8c-0.7,0.2-1.4,0.3-2.2,0.3l2.9,5.1l3.1,5.1c0.3,0.5,0.6,1.1,0.9,1.6H577l-1.2-2.5c-0.3-0.5-0.5-0.9-0.8-1.4
		c-0.3-0.5-0.5-1-0.8-1.5l-3.9-6.8c-0.2-0.3-0.5-0.8-0.8-1.4c0.8,0.2,1.5,0.3,2.3,0.3c1.1,0,2.1-0.2,3.1-0.6c0.9-0.4,1.6-1,2.2-1.9
		c0.5-0.9,0.7-1.8,0.8-2.8c0-0.5,0-1-0.2-1.5c-0.2-0.5-0.4-0.9-0.8-1.2c-0.3-0.3-0.7-0.6-1.1-0.8c-0.4-0.2-0.8-0.3-1.2-0.3
		c-0.5,0-1.1-0.1-1.7-0.1h-4.5c-0.3,8.2-0.6,15.8-0.6,22.6L564.3,256.2L564.3,256.2z"/>
	<path class="st0" d="M596.3,233.3c-1.3,0-2.6,0.3-3.9,0.8c-1.3,0.5-2.4,1.3-3.3,2.3c-0.9,1.1-1.6,2.4-2,3.7
		c-0.4,1.4-0.7,2.9-0.6,4.3c0,1.4,0.2,2.7,0.6,4c0.4,1.2,1.1,2.3,1.9,3.3c0.8,0.9,1.9,1.6,3.1,1.9c1.2,0.4,2.4,0.6,3.7,0.6
		c1.3,0,2.5-0.2,3.7-0.6c1.2-0.5,2.2-1.2,3.1-2.2c0.9-1,1.6-2.2,2-3.6c0.4-1.4,0.6-2.9,0.6-4.3c0-1.4-0.2-2.8-0.6-4.2
		c-0.3-1.3-0.9-2.5-1.9-3.4c-0.8-0.9-1.8-1.6-2.9-2C598.8,233.5,597.6,233.3,596.3,233.3z M596.5,230.8c1.6,0,3.2,0.3,4.8,0.8
		c1.5,0.5,2.9,1.4,4,2.6c1.1,1.1,2,2.5,2.5,4c0.5,1.6,0.8,3.3,0.8,5c0,1.8-0.3,3.6-0.8,5.4c-0.5,1.6-1.4,3.2-2.5,4.5
		c-1.1,1.3-2.6,2.2-4.2,2.8c-1.7,0.6-3.5,0.9-5.3,0.9c-1.7,0-3.4-0.3-5-0.8c-3.1-1-5.5-3.4-6.5-6.5c-0.5-1.6-0.8-3.3-0.8-5
		c0-1.8,0.3-3.7,0.9-5.4c0.6-1.6,1.5-3.2,2.6-4.5c1.2-1.3,2.8-2.1,4.4-2.6C593.1,231.2,594.8,230.8,596.5,230.8L596.5,230.8z"/>
	<path class="st1" d="M596.3,233.3c-1.3,0-2.6,0.3-3.9,0.8c-1.3,0.5-2.4,1.3-3.3,2.3c-0.9,1.1-1.6,2.4-2,3.7
		c-0.4,1.4-0.7,2.9-0.6,4.3c0,1.4,0.2,2.7,0.6,4c0.4,1.2,1.1,2.3,1.9,3.3c0.8,0.9,1.9,1.6,3.1,1.9c1.2,0.4,2.4,0.6,3.7,0.6
		c1.3,0,2.5-0.2,3.7-0.6c1.2-0.5,2.2-1.2,3.1-2.2c0.9-1,1.6-2.2,2-3.6c0.4-1.4,0.6-2.9,0.6-4.3c0-1.4-0.2-2.8-0.6-4.2
		c-0.3-1.3-0.9-2.5-1.9-3.4c-0.8-0.9-1.8-1.6-2.9-2C598.8,233.5,597.6,233.3,596.3,233.3z M596.5,230.8c1.6,0,3.2,0.3,4.8,0.8
		c1.5,0.5,2.9,1.4,4,2.6c1.1,1.1,2,2.5,2.5,4c0.5,1.6,0.8,3.3,0.8,5c0,1.8-0.3,3.6-0.8,5.4c-0.5,1.6-1.4,3.2-2.5,4.5
		c-1.1,1.3-2.6,2.2-4.2,2.8c-1.7,0.6-3.5,0.9-5.3,0.9c-1.7,0-3.4-0.3-5-0.8c-3.1-1-5.5-3.4-6.5-6.5c-0.5-1.6-0.8-3.3-0.8-5
		c0-1.8,0.3-3.7,0.9-5.4c0.6-1.6,1.5-3.2,2.6-4.5c1.2-1.3,2.8-2.1,4.4-2.6C593.1,231.2,594.8,230.8,596.5,230.8L596.5,230.8z"/>
	<path class="st0" d="M611.2,255.6c0-1.2-0.2-2.2-0.2-3.1c1,0.6,2.1,1,3.3,1.2c0.9,0.3,1.8,0.4,2.8,0.3c0.8,0,1.6-0.1,2.3-0.5
		c0.7-0.3,1.3-0.8,1.7-1.4c0.4-0.6,0.6-1.3,0.6-2c0-0.4,0-0.8-0.2-1.2c-0.1-0.4-0.4-0.8-0.6-1.1c-0.3-0.3-0.8-0.9-1.4-1.5
		s-1.7-1.5-2.9-2.6l-1.2-1.2l-1.2-1.2c-0.4-0.4-0.7-0.8-0.9-1.2c-0.2-0.3-0.4-0.7-0.6-1.1c-0.2-0.3-0.3-0.7-0.3-1.1
		c0-0.5-0.2-0.8-0.2-1.2c0-1,0.3-2,0.8-2.9c0.6-1,1.5-1.7,2.5-2.2c1.4-0.6,2.9-0.9,4.3-0.8c1.6,0,3.1,0.2,4.6,0.6
		c0.1,1,0.2,2,0.3,2.9c-1.5-0.6-3.2-0.9-4.8-0.9c-0.9,0-1.7,0.1-2.5,0.5c-0.6,0.3-1.1,0.8-1.5,1.4c-0.3,0.5-0.4,1.1-0.5,1.7
		c0,0.3,0,0.6,0.2,0.9c0.2,0.3,0.3,0.6,0.5,0.9c0.3,0.4,0.6,0.9,0.9,1.2l1.5,1.5c0.6,0.6,1.3,1.2,2,1.7c1.1,1.1,2,1.9,2.5,2.3
		c0.5,0.6,0.9,1.1,1.2,1.5c0.4,0.5,0.6,1,0.8,1.5c0.2,0.5,0.3,1.1,0.3,1.7c0,1-0.2,1.9-0.6,2.8c-0.4,0.8-1,1.5-1.7,2
		c-0.7,0.6-1.6,1-2.5,1.1c-0.9,0.2-1.9,0.3-2.8,0.3c-0.8,0-1.7,0-2.5-0.1C613.8,256.3,612.5,256,611.2,255.6z"/>
	<path class="st1" d="M611.2,255.6c0-1.2-0.2-2.2-0.2-3.1c1,0.6,2.1,1,3.3,1.2c0.9,0.3,1.8,0.4,2.8,0.3c0.8,0,1.6-0.1,2.3-0.5
		c0.7-0.3,1.3-0.8,1.7-1.4c0.4-0.6,0.6-1.3,0.6-2c0-0.4,0-0.8-0.2-1.2c-0.1-0.4-0.4-0.8-0.6-1.1c-0.3-0.3-0.8-0.9-1.4-1.5
		s-1.7-1.5-2.9-2.6l-1.2-1.2l-1.2-1.2c-0.4-0.4-0.7-0.8-0.9-1.2c-0.2-0.3-0.4-0.7-0.6-1.1c-0.2-0.3-0.3-0.7-0.3-1.1
		c0-0.5-0.2-0.8-0.2-1.2c0-1,0.3-2,0.8-2.9c0.6-1,1.5-1.7,2.5-2.2c1.4-0.6,2.9-0.9,4.3-0.8c1.6,0,3.1,0.2,4.6,0.6
		c0.1,1,0.2,2,0.3,2.9c-1.5-0.6-3.2-0.9-4.8-0.9c-0.9,0-1.7,0.1-2.5,0.5c-0.6,0.3-1.1,0.8-1.5,1.4c-0.3,0.5-0.4,1.1-0.5,1.7
		c0,0.3,0,0.6,0.2,0.9c0.2,0.3,0.3,0.6,0.5,0.9c0.3,0.4,0.6,0.9,0.9,1.2l1.5,1.5c0.6,0.6,1.3,1.2,2,1.7c1.1,1.1,2,1.9,2.5,2.3
		c0.5,0.6,0.9,1.1,1.2,1.5c0.4,0.5,0.6,1,0.8,1.5c0.2,0.5,0.3,1.1,0.3,1.7c0,1-0.2,1.9-0.6,2.8c-0.4,0.8-1,1.5-1.7,2
		c-0.7,0.6-1.6,1-2.5,1.1c-0.9,0.2-1.9,0.3-2.8,0.3c-0.8,0-1.7,0-2.5-0.1C613.8,256.3,612.5,256,611.2,255.6z"/>
	<path class="st2" d="M9.8,189.2c0.2,1.1,0.4,2.3,0.8,3.4c0.7,2.4,1.8,4.6,3.3,6.7c1.3,1.9,3.1,3.6,5.1,4.8c2,1.1,4.3,1.7,6.7,1.7
		c2,0,4-0.3,5.9-0.9c1.8-0.6,3.5-1.5,5-2.8c1.4-1.4,2.6-3,3.4-4.8c0.9-2.1,1.3-4.4,1.2-6.6c0.1-2.6-0.6-5.1-1.9-7.3
		c-1.1-2.1-2.6-3.9-4.5-5.3c-1.7-1.5-3.6-2.7-5.7-3.6c-2.2-0.9-4.2-1.5-6-2.2c-2.7-0.7-5.3-1.8-7.7-3.1c-2.5-1.5-4.7-3.3-6.6-5.4
		c-1.9-2.3-3.5-4.9-4.6-7.6c-1.3-3.1-1.9-6.5-1.9-9.9c0-3.1,0.6-6.3,1.9-9.1c1.2-2.7,2.9-5.2,5.1-7.3c2.1-2.1,4.6-3.8,7.3-5
		c2.7-1.1,5.5-1.7,8.4-1.7c4.6,0,8.4,0.9,11.3,2.9c2.9,1.7,5.4,4.1,7.1,7c1.7,2.7,2.9,5.7,3.6,8.8c0.3,1.4,0.6,2.6,0.8,3.9h-9.1
		c-0.2-0.8-0.4-1.6-0.8-2.3c-0.7-2.1-1.8-4-3.3-5.7c-1.2-1.5-2.8-2.8-4.5-3.7c-1.6-0.9-3.4-1.4-5.3-1.4c-1.7,0-3.5,0.3-5.1,0.9
		c-1.6,0.6-3.1,1.6-4.3,2.8c-1.3,1.2-2.4,2.6-3.3,4.2c-0.8,1.7-1.2,3.6-1.2,5.6c-0.1,2.4,0.4,4.7,1.6,6.8c1,1.9,2.3,3.6,4,5
		c1.6,1.4,3.3,2.5,5.3,3.4c2,0.8,3.9,1.4,5.6,2c2.9,0.8,5.8,2,8.5,3.4c2.8,1.5,5.2,3.4,7.3,5.7c2.2,2.2,3.9,4.9,5,7.7
		c1.3,3.2,1.9,6.7,1.9,10.2c0.1,3.6-0.6,7.2-1.9,10.5c-1.1,2.9-2.9,5.4-5.1,7.6c-2.3,2.1-5,3.7-7.9,4.6c-3.1,1.1-6.3,1.7-9.6,1.7
		c-3.3,0-6.6-0.8-9.6-2.3c-3.1-1.6-5.9-3.8-8.1-6.5c-2.4-2.9-4.3-6.1-5.7-9.6c-0.9-2.4-1.6-4.9-1.9-7.4h9.8L9.8,189.2z M110.1,124.9
		v9.3H74.9v29.7h36.4v9.3H74.9V203h36.6v9.3H66.3v-87.1h43.8V124.9z M173.9,203.7c14.9,0,28.3-9.1,33.7-22.9l0.2-0.9
		c0.1-0.9,0-2.5-1.2-2.6h-43.3l0.2-8h56c-1.4,24.3-20.6,43.5-45.4,43.5c-25.1,0-45.4-20.3-45.4-45.4c0-25.1,20.3-45.4,45.4-45.4
		c17.6,0,32,9.4,40.4,24.6h-10.7c-11.5-16.4-34.1-20.3-50.5-8.8s-20.3,34.1-8.8,50.5C151.1,198,162.1,203.7,173.9,203.7L173.9,203.7
		z M242,186.9c0.5,22,36.4,24.3,38.2-1.9v-59.9h8.5v60c0,0-0.2,1.9-0.6,4.5c-7.4,33.8-54.3,27.7-54.6-2.9v-62.3h8.5V186.9z
		 M306.8,210.7h8.7v-76.8h22.1c5,0,16.1,6.3,16.1,19.8c0,10.7-7.1,16.6-17.3,16.6c-2.6,0-6.7,0.3-9-0.3l26,41.8h9.9l-22.5-35.3
		c5.9,0,21.8-4.2,21.8-24.5c0.2-14.5-11.4-26.4-25.9-26.6h-30V210.7z"/>
	<path class="st3" d="M618.8,94.1v29H633v17.2h-14.2v69.2H599v-69.2h-14.5v-17.5H599V94.1H618.8z M501.8,154.8h53.4
		c-5.9-11.5-14.7-17.2-26.3-17.2C516.3,137.6,507.2,143.4,501.8,154.8L501.8,154.8z M574.6,171.4h-74.7c1.5,8.5,5.3,12.1,11,16.1
		c5.6,3.8,12.1,5.9,18.9,5.9c7.6,0.1,15.1-2.5,21-7.3h21.1c-10.8,15.2-26.2,23.2-43,23.2c-13,0-23.8-4.2-32.7-12.7
		s-13.2-18.9-13.2-31.6c0-11.8,4.3-22,13.2-30.5c8.8-8.7,19.7-13,32.5-13c12.1-0.2,23.8,4.6,32.4,13.2
		C570.2,143.5,574.5,157.4,574.6,171.4L574.6,171.4z M389.2,209l-0.3-86.5h18.7l-0.2,10.4c5.3-5.6,13.5-11.9,28.5-11.6
		c19.2,0.5,30,19.5,30,26.5l0.9,61.3h-18.4l-1.4-56.4c0-4.5-4.3-13-17-13.6c-20-0.9-22.9,15.8-22.9,22.8V209L389.2,209z"/>
	<circle class="st2" cx="652.7" cy="46.1" r="44.7"/>
	<path class="st4" d="M623.7,18.9c0.3-0.4,0.7-0.9,1.1-1.2c1.6-1.8,3.4-3.5,5.3-4.9l4.5,5.7c-1.8,1.6-3.5,3.3-5,5.1L623.7,18.9z
		 M632.3,11c11.9-8.2,25.9-7.6,41,1.1l-0.6,0.8C660.6,6,646.9,9,636.6,16.6L632.3,11z"/>
	<path class="st4" d="M676.8,74.5l1.4,3.1l-8,5.3l-2.5-3.7C670.9,77.8,673.9,76.3,676.8,74.5z M681.3,71.8l1.2,2.8l-3.3,2.2
		l-1.2-2.9C679.2,73.2,680.3,72.6,681.3,71.8z"/>
	<circle class="st2" cx="713.8" cy="130.5" r="35.8"/>
	<path class="st4" d="M690.8,108.8l0.9-0.9c1.3-1.4,2.7-2.7,4.2-3.9l3.6,4.5c-1.4,1.2-2.7,2.6-3.9,4L690.8,108.8z M697.8,102.5
		c9.4-6.5,20.6-6,32.7,0.9L730,104c-9.6-5.4-20.4-3.1-28.8,2.9L697.8,102.5z"/>
	<path class="st4" d="M733.2,153.1l1.1,2.5l-6.3,4.2l-2-2.9C728.4,155.7,730.8,154.5,733.2,153.1z M736.8,150.9l1.1,2.3l-2.6,1.7
		l-1.1-2.5C735.1,152.1,735.9,151.6,736.8,150.9z"/>
	<circle class="st2" cx="670" cy="201.6" r="25.1"/>
	<path class="st4" d="M653.9,186.2c0.2-0.3,0.4-0.5,0.6-0.8c0.9-1,1.9-2,2.9-2.8l2.5,3.3c-0.9,0.9-1.8,1.9-2.8,2.8L653.9,186.2z
		 M658.7,181.9c6.7-4.6,14.4-4.3,22.9,0.6l-0.3,0.5c-6.8-3.9-14.4-2.2-20.1,2.2L658.7,181.9z"/>
	<path class="st4" d="M683.7,217.4l0.8,1.7l-4.5,2.9l-1.4-2.2C680.3,219.2,682,218.3,683.7,217.4z M686.1,216l0.8,1.5l-1.8,1.2
		l-0.8-1.7C684.9,216.7,685.5,216.3,686.1,216L686.1,216z"/>
</g>
<path class="st3" d="M55.3,114.8H25.7V48.3h-23V25.2c4.3,0,8.5-0.7,12.6-2c3.1-0.9,5.9-2.5,8.4-4.6c2.1-2,3.9-4.3,5.2-6.8
	c2-3.7,3.3-7.6,4-11.7h22.5L55.3,114.8z"/>
<path class="st2" d="M72.9,107.1l-2.4,6.8h-6.6l10.5-29.2h8.4l10.9,29.2h-7l-2.5-6.8H72.9z M82.7,101.9c-2.2-6.2-3.6-10.1-4.3-12.7
	h-0.1c-0.8,2.9-2.3,7.5-4.1,12.7H82.7z"/>
<path class="st2" d="M97.6,113.8V84.6h8.3c3.9,6.6,11,18.4,12.4,21.6h0.1c-0.3-3.1-0.3-8.1-0.3-12.9v-8.7h6v29.2h-7.8
	c-3.3-5.7-11.2-19.3-12.7-22.7h-0.1c0.2,2.6,0.3,8.6,0.3,13.8v8.9H97.6z M102.6,81.8v-1.5c0-3.5,1.7-4.5,4.3-4.5
	c3,0,5.4,1.9,6.8,1.9c0.7,0,1.2-0.3,1.2-1.5v-0.4h4v1.1c0,4-1.7,5.1-4.5,5.1c-2.5,0-5.2-1.9-6.7-1.9c-0.6,0-1.1,0.3-1.1,1v0.6
	L102.6,81.8z"/>
<path class="st2" d="M159.7,99.1c0,8.1-5.1,15.1-15.2,15.1c-9.7,0-14.7-6.7-14.7-15s5.6-15,15.2-15C154,84.2,159.7,90.2,159.7,99.1z
	 M136.7,99.1c0,5.7,2.6,10,8.1,10c5.9,0,8-4.7,8-9.9c0-5.5-2.4-9.9-8.1-9.9C139.2,89.3,136.7,93.4,136.7,99.1L136.7,99.1z"/>
<path class="st2" d="M170.1,105.3c0.7,2.9,2.9,4.2,6.5,4.2s5.1-1.3,5.1-3.5c0-2.4-1.5-3.4-6.8-4.6c-8.4-1.9-10.5-4.8-10.5-8.7
	c0-5.1,4-8.6,11.3-8.6c8.2,0,11.4,4.2,11.9,8.4h-6.7c-0.3-1.8-1.4-3.8-5.3-3.8c-2.7,0-4.3,1.1-4.3,3.1s1.3,2.9,6.3,4
	c9,2,10.9,5.2,10.9,9.3c0,5.3-4.3,9-12.4,9c-7.8,0-11.9-3.6-12.7-9L170.1,105.3z"/>
<path class="st3" d="M122.9,59.5c5.3,0,9.3,1.4,12.1,4.2c2.2,2.2,3.6,5,4,8.1h35.7c-0.5-8.9-4.5-17.3-11.2-23.3
	c-7.5-6.9-17.8-10.3-30.8-10.3c-9.1,0-17.1,2-24,6.1l3.6-17.8H165V0H87.8l-12,64.6l33.5,1.2C112,61.6,116.5,59.5,122.9,59.5z"/>
</svg>
