<?xml version="1.0" encoding="utf-8"?>
<!-- Generator: Adobe Illustrator 24.0.2, SVG Export Plug-In . SVG Version: 6.00 Build 0)  -->
<svg version="1.1" xmlns="http://www.w3.org/2000/svg" xmlns:xlink="http://www.w3.org/1999/xlink" x="0px" y="0px"
	 viewBox="0 0 70.5 71.8" style="enable-background:new 0 0 70.5 71.8;" xml:space="preserve">
<style type="text/css">
	.st0{fill:#010202;}
	.st1{clip-path:url(#SVGID_2_);}
	.st2{fill:#88898C;}
	.st3{fill:#EB5F27;}
	.st4{clip-path:url(#SVGID_4_);}
	.st5{clip-path:url(#SVGID_6_);}
	.st6{clip-path:url(#SVGID_8_);}
	.st7{clip-path:url(#SVGID_10_);}
	.st8{fill:#EC672D;}
	.st9{fill:#F1F1F1;}
	.st10{clip-path:url(#SVGID_12_);}
	.st11{clip-path:url(#SVGID_14_);}
	.st12{fill:none;stroke:#6E6F72;stroke-width:0.8;stroke-miterlimit:10;}
	.st13{fill:none;stroke:#88898C;stroke-width:0.8;stroke-miterlimit:10;}
	.st14{fill:none;stroke:#494949;stroke-width:0.8;stroke-miterlimit:10;}
	.st15{fill:#6E6F72;}
	.st16{fill:none;stroke:#6E6F72;stroke-miterlimit:10;}
	.st17{fill:#717171;}
	.st18{fill:none;stroke:#717171;stroke-width:0.5706;stroke-miterlimit:3.8636;}
	.st19{fill-rule:evenodd;clip-rule:evenodd;fill:#E85410;}
	.st20{fill-rule:evenodd;clip-rule:evenodd;fill:#717171;}
	.st21{fill:#E85410;}
	.st22{fill:#FFFFFF;}
	.st23{clip-path:url(#SVGID_16_);}
	.st24{clip-path:url(#SVGID_18_);}
	.st25{clip-path:url(#SVGID_20_);}
	.st26{clip-path:url(#SVGID_22_);}
	.st27{clip-path:url(#SVGID_24_);}
	.st28{fill:#B5B5B7;}
	.st29{fill:#EBEBEB;}
	.st30{fill:#5B5B5B;}
	.st31{fill:#E15217;}
	.st32{fill:#0856A3;}
	.st33{fill:#BFBEBF;}
	.st34{fill:#485055;}
	.st35{fill:#32393F;}
	.st36{fill:#586065;}
	.st37{fill:#F29068;}
	.st38{fill:#F18A5F;}
	.st39{fill:#AA7A64;}
	.st40{fill:#B88C7B;}
	.st41{fill:#DA6837;}
	.st42{fill:#E46531;}
	.st43{fill:#F1BA87;}
	.st44{fill:#F1D0A5;}
	.st45{fill:#D37C56;}
	.st46{fill:#CE6B3F;}
	.st47{fill:#ED6A36;}
	.st48{fill:#B74B25;}
	.st49{fill:#E9511E;}
	.st50{fill:none;stroke:#3C3C3B;stroke-width:2;stroke-miterlimit:10;}
	.st51{fill:none;stroke:#88898C;stroke-width:2;stroke-miterlimit:10;}
	.st52{fill:#EC672D;stroke:#FFFFFF;stroke-width:9;stroke-miterlimit:10;}
</style>
<g id="car">
</g>
<g id="fam">
</g>
<g id="home">
	<g>
	</g>
</g>
<g id="masivo">
</g>
<g id="salud">
</g>
<g id="viajes">
	<g>
		<path class="st0" d="M37,1.4v1.5l-3.9,1c-0.1,0-0.3,0.1-0.4,0.2l-3,2l-6.5-3.3l-1.1,2.1l7.2,3.6c0.2,0.1,0.4,0.1,0.5,0.1
			c0.2,0,0.5-0.1,0.7-0.2L33.9,6l4.6-1.1c0.5-0.1,0.9-0.6,0.9-1.2V1.4H37z"/>
		<path class="st0" d="M68.8,24.8C63,6.3,43.2-4.1,24.7,1.7C6.2,7.5-4.2,27.3,1.6,45.9l2.3-0.7C-1.5,27.9,8.1,9.4,25.4,4
			c8.4-2.6,17.3-1.8,25,2.2c7.8,4.1,13.5,10.9,16.1,19.3c2.6,8.4,1.8,17.3-2.2,25C60.3,58.3,53.4,64.1,45,66.7
			c-14,4.4-29.4-1.2-37.4-13.5l-2,1.3c6.6,10.2,17.9,16,29.6,16c3.5,0,7-0.5,10.5-1.6c9-2.8,16.3-8.9,20.7-17.3
			C70.8,43.3,71.7,33.8,68.8,24.8z"/>
		<path class="st0" d="M28.3,16.8l0.7-2.3L17.1,11c-0.4-0.1-0.9,0-1.2,0.3l-2.4,2.4c-0.3,0.3-0.4,0.7-0.3,1.1
			c0.1,0.4,0.3,0.7,0.7,0.9l10.7,4.8l1-2.2l-9.2-4.1l0.7-0.7L28.3,16.8z"/>
		<path class="st0" d="M39.4,9.7c0-0.7-0.5-1.2-1.2-1.2c0,0,0,0,0,0c-2.6,0-5.1,1-7,2.9L21.1,21.5l-4.1-1c-0.4-0.1-0.8,0-1.1,0.3
			l-2.4,2.4c-0.3,0.3-0.4,0.6-0.3,1c0,0.4,0.3,0.7,0.6,0.9l5.7,3.4l3.4,5.7c0.2,0.3,0.5,0.5,0.9,0.6c0,0,0.1,0,0.1,0
			c0.3,0,0.6-0.1,0.8-0.3l2.4-2.4c0.3-0.3,0.4-0.7,0.3-1.1l-1-4.1l10.3-10.2C38.4,14.8,39.4,12.4,39.4,9.7z M24.2,25.6
			c-0.3,0.3-0.4,0.7-0.3,1.1l1,4.1l-0.8,0.8L21.3,27c-0.1-0.2-0.2-0.3-0.4-0.4l-4.7-2.8l0.8-0.8l4.1,1c0.4,0.1,0.8,0,1.1-0.3
			l10.6-10.6c1.1-1.1,2.5-1.8,4-2.1c-0.2,1.5-0.9,2.8-1.9,3.9L24.2,25.6z"/>
		<path class="st0" d="M37,31l-3.6-12.1l-2.3,0.7L34.5,31l-0.7,0.6l-4-9.2l-2.2,0.9l4.6,10.7c0.2,0.4,0.5,0.6,0.8,0.7
			c0.1,0,0.2,0,0.3,0c0.3,0,0.6-0.1,0.8-0.3l2.5-2.2C37,31.9,37.1,31.5,37,31z"/>
		<path class="st0" d="M22.7,65.9c-8.5,4-15.2,4.5-18.3,1.4C-1,61.9,4.9,46.2,18.1,30.8l-1.8-1.6C1.8,46.2-3.8,62.5,2.8,69
			c1.8,1.8,4.4,2.7,7.6,2.7c3.7,0,8.3-1.2,13.4-3.7L22.7,65.9z"/>
		<path class="st0" d="M63.1,41.4c-0.2-0.4-0.6-0.6-1.1-0.6h-4l-3.3-6.5c-0.2-0.4-0.6-0.7-1.1-0.7H41.8c-0.7,0-1.2,0.5-1.2,1.2v9.5
			c0,0.7,0.5,1.2,1.2,1.2h3.6v13.1c0,0.7,0.5,1.2,1.2,1.2h6c0.3,0,0.6-0.1,0.8-0.4l4.8-4.8c0.2-0.2,0.3-0.5,0.3-0.8v-4.4l4.6-6.9
			C63.3,42.2,63.3,41.8,63.1,41.4z M56.3,48.4c-0.1,0.2-0.2,0.4-0.2,0.7v4.3L52,57.4h-4.3h0V44.3c0-0.7-0.5-1.2-1.2-1.2H43V36h10
			l3.3,6.5c0.2,0.4,0.6,0.7,1.1,0.7h2.5L56.3,48.4z"/>
		<path class="st0" d="M64,31.2l-4.4-7.8c-0.2-0.4-0.6-0.6-1-0.6h-7.2c-0.4,0-0.8,0.2-1,0.5l-2,3h-2.9v-6h6c0.3,0,0.6-0.1,0.8-0.3
			l4.4-4.4h5.5v-2.4h-6c-0.3,0-0.6,0.1-0.8,0.3l-4.4,4.4h-6.7c-0.7,0-1.2,0.5-1.2,1.2v8.4c0,0.7,0.5,1.2,1.2,1.2h4.8
			c0.4,0,0.8-0.2,1-0.5l2-3h5.8l4.4,7.8c0.2,0.4,0.6,0.6,1,0.6H68v-2.4H64z"/>
		<path class="st0" d="M34.6,43.1H28l-3.2-3.2c-0.2-0.2-0.5-0.3-0.8-0.3h-6c-0.7,0-1.2,0.5-1.2,1.2v8.4c0,0.7,0.5,1.2,1.2,1.2h4.8
			v11.9c0,0.5,0.3,0.9,0.7,1.1c0.2,0.1,0.4,0.1,0.5,0.1c0.3,0,0.5-0.1,0.7-0.2l4.8-3.6c0.3-0.2,0.5-0.6,0.5-1v-3l5.5-4.4
			c0.3-0.2,0.4-0.6,0.4-0.9v-6C35.8,43.7,35.3,43.1,34.6,43.1z M33.4,49.7l-5.5,4.4c-0.3,0.2-0.4,0.6-0.4,0.9v3l-2.4,1.8V49.1
			c0-0.7-0.5-1.2-1.2-1.2h-4.8v-6h4.3l3.2,3.2c0.2,0.2,0.5,0.3,0.8,0.3h6V49.7z"/>
		<path class="st0" d="M10.6,25.8l-3.6-6c-0.2-0.4-0.6-0.6-1-0.6H4.8v2.4h0.5l2.8,4.6l-2.9,2.9c-0.2,0.2-0.3,0.5-0.3,0.8v3.6H1.2V36
			H6c0.7,0,1.2-0.5,1.2-1.2v-4.3l3.2-3.2C10.8,26.9,10.9,26.3,10.6,25.8z"/>
	</g>
</g>
<g id="coporativos">
</g>
<g id="headphone">
</g>
<g id="web">
</g>
<g id="llamanos">
</g>
<g id="segurnet">
</g>
<g id="estrellas">
</g>
<g id="fb">
</g>
<g id="ig">
</g>
<g id="valores">
</g>
<g id="vision">
</g>
<g id="personas">
</g>
<g id="direccion">
</g>
<g id="tele">
</g>
<g id="correo">
</g>
<g id="horario">
</g>
<g id="wassap">
</g>
<g id="seguro">
</g>
<g id="segur">
</g>
<g id="Capa_25">
</g>
<g id="Capa_26">
</g>
<g id="Capa_27">
</g>
</svg>
